<svg xmlns="http://www.w3.org/2000/svg" xmlns:xlink="http://www.w3.org/1999/xlink" width="44" height="44" viewBox="0 0 44 44">
  <defs>
    <clipPath id="clip-path">
      <circle id="Ellipse_23" data-name="Ellipse 23" cx="20" cy="20" r="20" fill="#fff" stroke="#707070" stroke-width="1"/>
    </clipPath>
  </defs>
  <g id="Group_17644" data-name="Group 17644" transform="translate(-1749 -199)">
    <g id="Group_17021" data-name="Group 17021" transform="translate(730.074 -241)">
      <g id="Group_17012" data-name="Group 17012" transform="translate(1018.926 439.925)">
        <g id="Path_21082" data-name="Path 21082" transform="translate(2 2.075)" fill="#fff">
          <path d="M20,0A20,20,0,1,1,0,20,20,20,0,0,1,20,0Z" stroke="none"/>
          <path d="M 20 0 C 8.954299926757813 0 0 8.954299926757813 0 20 C 0 31.04570007324219 8.954299926757813 40 20 40 C 31.04570007324219 40 40 31.04570007324219 40 20 C 40 8.954299926757813 31.04570007324219 0 20 0 M 20 -2 C 22.96910095214844 -2 25.85044860839844 -1.418048858642578 28.56401062011719 -0.2703094482421875 C 31.18399047851563 0.8378486633300781 33.53656005859375 2.423851013183594 35.55635070800781 4.443649291992188 C 37.57614898681641 6.46343994140625 39.16215133666992 8.816009521484375 40.27030944824219 11.43598937988281 C 41.41804885864258 14.14954948425293 42 17.03089904785156 42 20 C 42 22.96910095214844 41.41804885864258 25.85044860839844 40.27030944824219 28.56401062011719 C 39.16215133666992 31.18399047851563 37.57614898681641 33.53656005859375 35.55635070800781 35.55635070800781 C 33.53656005859375 37.57614898681641 31.18399047851563 39.16215133666992 28.56401062011719 40.27030944824219 C 25.85044860839844 41.41804885864258 22.96910095214844 42 20 42 C 17.03089904785156 42 14.14954948425293 41.41804885864258 11.43598937988281 40.27030944824219 C 8.816009521484375 39.16215133666992 6.46343994140625 37.57614898681641 4.443649291992188 35.55635070800781 C 2.423851013183594 33.53656005859375 0.8378486633300781 31.18399047851563 -0.2703094482421875 28.56401062011719 C -1.418048858642578 25.85044860839844 -2 22.96910095214844 -2 20 C -2 17.03089904785156 -1.418048858642578 14.14954948425293 -0.2703094482421875 11.43598937988281 C 0.8378486633300781 8.816009521484375 2.423851013183594 6.46343994140625 4.443649291992188 4.443649291992188 C 6.46343994140625 2.423851013183594 8.816009521484375 0.8378486633300781 11.43598937988281 -0.2703094482421875 C 14.14954948425293 -1.418048858642578 17.03089904785156 -2 20 -2 Z" stroke="none" fill="rgba(141,141,141,0.5)"/>
        </g>
        <g id="Mask_Group_2" data-name="Mask Group 2" transform="translate(2 2.075)" clip-path="url(#clip-path)">
          <g id="Rectangle_249" data-name="Rectangle 249" transform="translate(5.217 14.043)" fill="#c5c5c5" stroke="#8b8b8b" stroke-width="2">
            <rect width="30" height="31" rx="3" stroke="none"/>
            <rect x="1" y="1" width="28" height="29" rx="2" fill="none"/>
          </g>
          <rect id="Rectangle_250" data-name="Rectangle 250" width="14" height="6" rx="1" transform="translate(13.043 12.075)" fill="#8b8b8b"/>
          <g id="Group_16454" data-name="Group 16454" transform="translate(14.783 20.055)">
            <circle id="Ellipse_110" data-name="Ellipse 110" cx="5" cy="5" r="5" transform="translate(0.292 -0.055)" fill="#8b8b8b"/>
            <g id="Group_17039" data-name="Group 17039" transform="translate(0 1)">
              <rect id="Rectangle_251" data-name="Rectangle 251" width="2" height="6" transform="translate(4.292 0.945)" fill="#fff"/>
              <rect id="Rectangle_252" data-name="Rectangle 252" width="6" height="2" transform="translate(2.292 2.945)" fill="#fff"/>
            </g>
          </g>
          <g id="Path_20866" data-name="Path 20866" transform="translate(17.261 9.5)" fill="#fff">
            <path d="M 3 5 C 1.897199988365173 5 1 4.102799892425537 1 3 C 1 1.897199988365173 1.897199988365173 1 3 1 C 4.102799892425537 1 5 1.897199988365173 5 3 C 5 4.102799892425537 4.102799892425537 5 3 5 Z" stroke="none"/>
            <path d="M 3 2 C 2.448600053787231 2 2 2.448600053787231 2 3 C 2 3.551399946212769 2.448600053787231 4 3 4 C 3.551399946212769 4 4 3.551399946212769 4 3 C 4 2.448600053787231 3.551399946212769 2 3 2 M 3 0 C 4.65684986114502 0 6 1.34315013885498 6 3 C 6 4.65684986114502 4.65684986114502 6 3 6 C 1.34315013885498 6 0 4.65684986114502 0 3 C 0 1.34315013885498 1.34315013885498 0 3 0 Z" stroke="none" fill="#8b8b8b"/>
          </g>
          <rect id="Rectangle_1118" data-name="Rectangle 1118" width="18" height="2" transform="translate(11.074 32)" fill="#8b8b8b"/>
          <rect id="Rectangle_1119" data-name="Rectangle 1119" width="18" height="2" transform="translate(11.074 36)" fill="#8b8b8b"/>
        </g>
      </g>
    </g>
  </g>
</svg>
