<svg xmlns="http://www.w3.org/2000/svg" xmlns:xlink="http://www.w3.org/1999/xlink" width="44" height="44" viewBox="0 0 44 44">
  <defs>
    <clipPath id="clip-path">
      <circle id="Ellipse_23" data-name="Ellipse 23" cx="20" cy="20" r="20" fill="#fff" stroke="#707070" stroke-width="1"/>
    </clipPath>
  </defs>
  <g id="Group_17680" data-name="Group 17680" transform="translate(-1749 -584)">
    <g id="Group_17120" data-name="Group 17120" transform="translate(730.074 144)">
      <g id="Group_17012" data-name="Group 17012" transform="translate(1018.926 439.925)">
        <g id="Path_20928" data-name="Path 20928" transform="translate(2 2.075)" fill="#fff">
          <path d="M 20 41 C 17.16546058654785 41 14.41518020629883 40.44462966918945 11.8255500793457 39.34931182861328 C 9.324760437011719 38.29156112670898 7.079040050506592 36.77751922607422 5.150760173797607 34.84923934936523 C 3.222480058670044 32.92095947265625 1.708439946174622 30.67523956298828 0.6506999731063843 28.17445945739746 C -0.4446299970149994 25.58482933044434 -1 22.83453941345215 -1 20 C -1 17.16546058654785 -0.4446299970149994 14.41518020629883 0.6506999731063843 11.8255500793457 C 1.708439946174622 9.324760437011719 3.222480058670044 7.079040050506592 5.150760173797607 5.150760173797607 C 7.079040050506592 3.222480058670044 9.324760437011719 1.708439946174622 11.8255500793457 0.6506999731063843 C 14.41518020629883 -0.4446299970149994 17.16546058654785 -1 20 -1 C 22.83453941345215 -1 25.58482933044434 -0.4446299970149994 28.17445945739746 0.6506999731063843 C 30.67523956298828 1.708439946174622 32.92095947265625 3.222480058670044 34.84923934936523 5.150760173797607 C 36.77751922607422 7.079040050506592 38.29156112670898 9.324760437011719 39.34931182861328 11.8255500793457 C 40.44462966918945 14.41518020629883 41 17.16546058654785 41 20 C 41 22.83453941345215 40.44462966918945 25.58482933044434 39.34931182861328 28.17445945739746 C 38.29156112670898 30.67523956298828 36.77751922607422 32.92095947265625 34.84923934936523 34.84923934936523 C 32.92095947265625 36.77751922607422 30.67523956298828 38.29156112670898 28.17445945739746 39.34931182861328 C 25.58482933044434 40.44462966918945 22.83453941345215 41 20 41 Z" stroke="none"/>
          <path d="M 20 0 C 8.954299926757813 0 0 8.954299926757813 0 20 C 0 31.04570007324219 8.954299926757813 40 20 40 C 31.04570007324219 40 40 31.04570007324219 40 20 C 40 8.954299926757813 31.04570007324219 0 20 0 M 20 -2 C 22.96910095214844 -2 25.85044860839844 -1.418048858642578 28.56401062011719 -0.2703094482421875 C 31.18399047851563 0.8378486633300781 33.53656005859375 2.423851013183594 35.55635070800781 4.443649291992188 C 37.57614898681641 6.46343994140625 39.16215133666992 8.816009521484375 40.27030944824219 11.43598937988281 C 41.41804885864258 14.14954948425293 42 17.03089904785156 42 20 C 42 22.96910095214844 41.41804885864258 25.85044860839844 40.27030944824219 28.56401062011719 C 39.16215133666992 31.18399047851563 37.57614898681641 33.53656005859375 35.55635070800781 35.55635070800781 C 33.53656005859375 37.57614898681641 31.18399047851563 39.16215133666992 28.56401062011719 40.27030944824219 C 25.85044860839844 41.41804885864258 22.96910095214844 42 20 42 C 17.03089904785156 42 14.14954948425293 41.41804885864258 11.43598937988281 40.27030944824219 C 8.816009521484375 39.16215133666992 6.46343994140625 37.57614898681641 4.443649291992188 35.55635070800781 C 2.423851013183594 33.53656005859375 0.8378486633300781 31.18399047851563 -0.2703094482421875 28.56401062011719 C -1.418048858642578 25.85044860839844 -2 22.96910095214844 -2 20 C -2 17.03089904785156 -1.418048858642578 14.14954948425293 -0.2703094482421875 11.43598937988281 C 0.8378486633300781 8.816009521484375 2.423851013183594 6.46343994140625 4.443649291992188 4.443649291992188 C 6.46343994140625 2.423851013183594 8.816009521484375 0.8378486633300781 11.43598937988281 -0.2703094482421875 C 14.14954948425293 -1.418048858642578 17.03089904785156 -2 20 -2 Z" stroke="none" fill="#81c4ae"/>
        </g>
        <g id="Mask_Group_2" data-name="Mask Group 2" transform="translate(2 2.075)" clip-path="url(#clip-path)">
          <g id="Path_20929" data-name="Path 20929" transform="translate(5.217 14.043)" fill="#81c4ae">
            <path d="M 27 30 L 3 30 C 1.897199988365173 30 1 29.1028003692627 1 28 L 1 3 C 1 1.897199988365173 1.897199988365173 1 3 1 L 27 1 C 28.1028003692627 1 29 1.897199988365173 29 3 L 29 28 C 29 29.1028003692627 28.1028003692627 30 27 30 Z" stroke="none"/>
            <path d="M 3 2 C 2.448600769042969 2 2 2.448600769042969 2 3 L 2 28 C 2 28.55139923095703 2.448600769042969 29 3 29 L 27 29 C 27.55139923095703 29 28 28.55139923095703 28 28 L 28 3 C 28 2.448600769042969 27.55139923095703 2 27 2 L 3 2 M 3 0 L 27 0 C 28.65685081481934 0 30 1.3431396484375 30 3 L 30 28 C 30 29.65685081481934 28.65685081481934 31 27 31 L 3 31 C 1.3431396484375 31 0 29.65685081481934 0 28 L 0 3 C 0 1.3431396484375 1.3431396484375 0 3 0 Z" stroke="none" fill="#03895d"/>
          </g>
          <rect id="Rectangle_250" data-name="Rectangle 250" width="14" height="6" rx="1" transform="translate(13.043 12.075)" fill="#03895d"/>
          <g id="Group_16454" data-name="Group 16454" transform="translate(14.783 20.055)">
            <circle id="Ellipse_110" data-name="Ellipse 110" cx="5" cy="5" r="5" transform="translate(0.292 -0.055)" fill="#03895d"/>
            <g id="Group_17039" data-name="Group 17039" transform="translate(0 1)">
              <rect id="Rectangle_251" data-name="Rectangle 251" width="2" height="6" transform="translate(4.292 0.945)" fill="#fff"/>
              <rect id="Rectangle_252" data-name="Rectangle 252" width="6" height="2" transform="translate(2.292 2.945)" fill="#fff"/>
            </g>
          </g>
          <g id="Path_20866" data-name="Path 20866" transform="translate(17.261 9.5)" fill="#fff">
            <path d="M 3 5 C 1.897199988365173 5 1 4.102799892425537 1 3 C 1 1.897199988365173 1.897199988365173 1 3 1 C 4.102799892425537 1 5 1.897199988365173 5 3 C 5 4.102799892425537 4.102799892425537 5 3 5 Z" stroke="none"/>
            <path d="M 3 2 C 2.448600053787231 2 2 2.448600053787231 2 3 C 2 3.551399946212769 2.448600053787231 4 3 4 C 3.551399946212769 4 4 3.551399946212769 4 3 C 4 2.448600053787231 3.551399946212769 2 3 2 M 3 0 C 4.65684986114502 0 6 1.34315013885498 6 3 C 6 4.65684986114502 4.65684986114502 6 3 6 C 1.34315013885498 6 0 4.65684986114502 0 3 C 0 1.34315013885498 1.34315013885498 0 3 0 Z" stroke="none" fill="#03895d"/>
          </g>
          <rect id="Rectangle_1118" data-name="Rectangle 1118" width="18" height="2" transform="translate(11.074 32)" fill="#03895d"/>
          <rect id="Rectangle_1119" data-name="Rectangle 1119" width="18" height="2" transform="translate(11.074 36)" fill="#03895d"/>
        </g>
      </g>
    </g>
  </g>
</svg>
