<svg xmlns="http://www.w3.org/2000/svg" xmlns:xlink="http://www.w3.org/1999/xlink" width="50" height="50" viewBox="0 0 50 50">
  <defs>
    <clipPath id="clip-path">
      <circle id="Ellipse_1" data-name="Ellipse 1" cx="23" cy="23" r="23" fill="#fff" stroke="#707070" stroke-width="1"/>
    </clipPath>
  </defs>
  <g id="Group_18009" data-name="Group 18009" transform="translate(-487 -171)">
    <g id="Group_17209" data-name="Group 17209" transform="translate(488 172)">
      <g id="Ellipse_5" data-name="Ellipse 5" transform="translate(1 1)" fill="#fff" stroke="rgba(141,141,141,0.5)" stroke-width="2">
        <circle cx="23" cy="23" r="23" stroke="none"/>
        <circle cx="23" cy="23" r="24" fill="none"/>
      </g>
      <g id="Mask_Group_1" data-name="Mask Group 1" transform="translate(1 1)" clip-path="url(#clip-path)">
        <path id="Path_386" data-name="Path 386" d="M204.929-6.516l-6.49-2.723a2.058,2.058,0,0,1-.848-.935.543.543,0,0,1,.5-.78h4.57a7.266,7.266,0,0,0,2.969-.382,1.248,1.248,0,0,0,.545-1.888c-1.384-1.91-4.247-6.4-4.339-11.048,0,0-.159-7.147-7.438-7.205a8.531,8.531,0,0,0-3.611.764,4.953,4.953,0,0,1,.149,1.721v3.72a1.893,1.893,0,0,1,.664,1.426v2.573a1.938,1.938,0,0,1-1.412,1.836,13.973,13.973,0,0,1-1.971,3.849,9.22,9.22,0,0,1-.6.747v2.411a2.3,2.3,0,0,0,.543,1.477h1.827a.464.464,0,0,1,.3.832c-.124.095-.242.182-.352.261l5.363,2.6a5.148,5.148,0,0,1,2.943,4.615V-.691h9.3V-2.426A4.559,4.559,0,0,0,204.929-6.516Z" transform="translate(-168.51 47.167)" fill="rgba(141,141,141,0.5)"/>
        <path id="Path_387" data-name="Path 387" d="M196.054-7.226l-6.29-3.1a2.362,2.362,0,0,1-1.326-2.116v-2.433a9.3,9.3,0,0,0,.6-.754,14.18,14.18,0,0,0,1.955-3.885,1.95,1.95,0,0,0,1.4-1.853v-2.6a1.925,1.925,0,0,0-.658-1.439v-3.754S192.512-35,184.487-35s-7.243,5.843-7.243,5.843V-25.4a1.925,1.925,0,0,0-.658,1.439v2.6a1.941,1.941,0,0,0,.911,1.634,12.814,12.814,0,0,0,2.382,4.858V-12.5a2.359,2.359,0,0,1-1.251,2.076l-5.874,3.16A5.2,5.2,0,0,0,170-2.7v2.1h28.974V-2.569A5.2,5.2,0,0,0,196.054-7.226Z" transform="translate(-169 47.069)" fill="#8d8d8d"/>
      </g>
    </g>
  </g>
</svg>
