<svg xmlns="http://www.w3.org/2000/svg" xmlns:xlink="http://www.w3.org/1999/xlink" width="44" height="44" viewBox="0 0 44 44">
  <defs>
    <clipPath id="clip-path">
      <rect width="44" height="44" fill="none"/>
    </clipPath>
    <clipPath id="clip-path-2">
      <circle id="Ellipse_23" data-name="Ellipse 23" cx="20" cy="20" r="20" fill="#fff" stroke="#707070" stroke-width="1"/>
    </clipPath>
  </defs>
  <g id="Administration_40x40_Dashboard" clip-path="url(#clip-path)">
    <g id="Path_21087" data-name="Path 21087" transform="translate(2 2)" fill="#fff">
      <path d="M20,0A20,20,0,1,1,0,20,20,20,0,0,1,20,0Z" stroke="none"/>
      <path d="M 20 0 C 8.954299926757813 0 0 8.954299926757813 0 20 C 0 31.04570007324219 8.954299926757813 40 20 40 C 31.04570007324219 40 40 31.04570007324219 40 20 C 40 8.954299926757813 31.04570007324219 0 20 0 M 20 -2 C 22.96910095214844 -2 25.85044860839844 -1.418048858642578 28.56401062011719 -0.2703094482421875 C 31.18399047851563 0.8378486633300781 33.53656005859375 2.423851013183594 35.55635070800781 4.443649291992188 C 37.57614898681641 6.46343994140625 39.16215133666992 8.816009521484375 40.27030944824219 11.43598937988281 C 41.41804885864258 14.14954948425293 42 17.03089904785156 42 20 C 42 22.96910095214844 41.41804885864258 25.85044860839844 40.27030944824219 28.56401062011719 C 39.16215133666992 31.18399047851563 37.57614898681641 33.53656005859375 35.55635070800781 35.55635070800781 C 33.53656005859375 37.57614898681641 31.18399047851563 39.16215133666992 28.56401062011719 40.27030944824219 C 25.85044860839844 41.41804885864258 22.96910095214844 42 20 42 C 17.03089904785156 42 14.14954948425293 41.41804885864258 11.43598937988281 40.27030944824219 C 8.816009521484375 39.16215133666992 6.46343994140625 37.57614898681641 4.443649291992188 35.55635070800781 C 2.423851013183594 33.53656005859375 0.8378486633300781 31.18399047851563 -0.2703094482421875 28.56401062011719 C -1.418048858642578 25.85044860839844 -2 22.96910095214844 -2 20 C -2 17.03089904785156 -1.418048858642578 14.14954948425293 -0.2703094482421875 11.43598937988281 C 0.8378486633300781 8.816009521484375 2.423851013183594 6.46343994140625 4.443649291992188 4.443649291992188 C 6.46343994140625 2.423851013183594 8.816009521484375 0.8378486633300781 11.43598937988281 -0.2703094482421875 C 14.14954948425293 -1.418048858642578 17.03089904785156 -2 20 -2 Z" stroke="none" fill="rgba(89,113,149,0.3)"/>
    </g>
    <g id="Mask_Group_2" data-name="Mask Group 2" transform="translate(2 2)" clip-path="url(#clip-path-2)">
      <g id="nut-icon" transform="translate(0.426 24.894)">
        <circle id="Oval" cx="1.5" cy="1.5" r="1.5" transform="translate(7.346 7.346)" fill="#597195"/>
        <path id="Shape" d="M10.059,18H7.871a.467.467,0,0,1-.441-.365l-.408-2.179a6.762,6.762,0,0,1-1.228-.512l-1.8,1.233a.441.441,0,0,1-.249.073.455.455,0,0,1-.322-.127L1.874,14.577a.465.465,0,0,1-.053-.57l1.233-1.8a6.7,6.7,0,0,1-.522-1.265L.366,10.533A.469.469,0,0,1,0,10.091V7.9a.467.467,0,0,1,.366-.441l2.168-.406a6.735,6.735,0,0,1,.51-1.24L1.8,3.994a.467.467,0,0,1,.053-.57L3.4,1.876a.455.455,0,0,1,.321-.127.438.438,0,0,1,.249.074L5.78,3.062a6.7,6.7,0,0,1,1.241-.518L7.43.366A.468.468,0,0,1,7.871,0h2.188A.467.467,0,0,1,10.5.366l.4,2.157a6.729,6.729,0,0,1,1.294.529L14.033,1.8a.443.443,0,0,1,.248-.073.455.455,0,0,1,.321.127L16.149,3.4a.466.466,0,0,1,.053.57L14.948,5.8a6.7,6.7,0,0,1,.519,1.255l2.168.407A.465.465,0,0,1,18,7.9v2.187a.468.468,0,0,1-.365.442l-2.166.406a6.757,6.757,0,0,1-.53,1.281l1.242,1.814a.467.467,0,0,1-.054.57L14.58,16.151a.454.454,0,0,1-.322.127.437.437,0,0,1-.249-.074l-1.825-1.249a6.78,6.78,0,0,1-1.28.521l-.4,2.157A.468.468,0,0,1,10.059,18ZM9.085,5.314a3.761,3.761,0,1,0,1.468.3A3.746,3.746,0,0,0,9.085,5.314Z" transform="translate(0 0)" fill="#597195"/>
      </g>
      <g id="nut-icon_copy" data-name="nut-icon copy" transform="translate(17.447 15.745)">
        <circle id="Oval-2" data-name="Oval" cx="2" cy="2" r="2" transform="translate(10.234 10.234)" fill="rgba(89,113,149,0.5)"/>
        <path id="Shape-2" data-name="Shape" d="M13.971,25H10.932a.649.649,0,0,1-.613-.507l-.567-3.026a9.394,9.394,0,0,1-1.706-.711l-2.5,1.713a.612.612,0,0,1-.345.1.632.632,0,0,1-.447-.176L2.6,20.245a.646.646,0,0,1-.074-.792l1.713-2.5a9.329,9.329,0,0,1-.725-1.757L.508,14.629A.65.65,0,0,1,0,14.015V10.977a.649.649,0,0,1,.508-.613L3.519,9.8a9.368,9.368,0,0,1,.709-1.722L2.5,5.547a.648.648,0,0,1,.074-.792L4.719,2.606a.631.631,0,0,1,.446-.176.608.608,0,0,1,.346.1L8.027,4.253a9.307,9.307,0,0,1,1.724-.72L10.319.508A.65.65,0,0,1,10.932,0H13.97a.648.648,0,0,1,.612.508l.562,3a9.345,9.345,0,0,1,1.8.734L19.49,2.495a.606.606,0,0,1,.345-.1.632.632,0,0,1,.446.176l2.149,2.149a.647.647,0,0,1,.075.792L20.761,8.057a9.284,9.284,0,0,1,.72,1.743l3.012.565a.645.645,0,0,1,.507.614v3.038a.65.65,0,0,1-.507.613l-3.009.564a9.382,9.382,0,0,1-.736,1.779l1.724,2.519a.649.649,0,0,1-.075.792L20.25,22.431a.63.63,0,0,1-.447.177.607.607,0,0,1-.345-.1l-2.534-1.734a9.431,9.431,0,0,1-1.778.724l-.562,3A.65.65,0,0,1,13.971,25ZM12.5,7.292a5.194,5.194,0,1,0,2.028.409A5.173,5.173,0,0,0,12.5,7.292Z" transform="translate(0 0)" fill="rgba(74,98,133,0.51)"/>
      </g>
      <g id="nut-icon_copy_2" data-name="nut-icon copy 2" transform="translate(6.383 11.489)">
        <ellipse id="Oval-3" data-name="Oval" cx="1.25" cy="1.21" rx="1.25" ry="1.21" transform="translate(5.705 5.705)" fill="#597195"/>
        <path id="Shape-3" data-name="Shape" d="M7.824,14h-1.7a.363.363,0,0,1-.343-.284l-.318-1.695a5.245,5.245,0,0,1-.955-.4l-1.4.959a.342.342,0,0,1-.193.057.354.354,0,0,1-.25-.1l-1.2-1.2a.362.362,0,0,1-.041-.443l.959-1.4a5.215,5.215,0,0,1-.406-.984L.284,8.192A.365.365,0,0,1,0,7.849v-1.7A.364.364,0,0,1,.284,5.8l1.686-.316a5.252,5.252,0,0,1,.4-.965L1.4,3.106a.363.363,0,0,1,.041-.444l1.2-1.2a.353.353,0,0,1,.25-.1.341.341,0,0,1,.194.057L4.5,2.382a5.225,5.225,0,0,1,.966-.4L5.779.285A.364.364,0,0,1,6.122,0h1.7a.363.363,0,0,1,.343.285l.315,1.678a5.213,5.213,0,0,1,1.006.411L10.914,1.4a.339.339,0,0,1,.193-.057.354.354,0,0,1,.25.1l1.2,1.2a.363.363,0,0,1,.042.444l-.976,1.427a5.206,5.206,0,0,1,.4.976l1.686.316A.361.361,0,0,1,14,6.148v1.7a.364.364,0,0,1-.284.343l-1.685.316a5.256,5.256,0,0,1-.412,1l.966,1.411a.363.363,0,0,1-.042.444l-1.2,1.2a.352.352,0,0,1-.25.1A.34.34,0,0,1,10.9,12.6l-1.419-.971a5.284,5.284,0,0,1-1,.406l-.315,1.678A.364.364,0,0,1,7.824,14ZM6.912,4.025a2.888,2.888,0,1,0,2.042.846A2.868,2.868,0,0,0,6.912,4.025Z" transform="translate(0)" fill="#597195"/>
      </g>
    </g>
  </g>
</svg>
