<svg xmlns="http://www.w3.org/2000/svg" xmlns:xlink="http://www.w3.org/1999/xlink" width="44" height="44" viewBox="0 0 44 44">
  <defs>
    <clipPath id="clip-path">
      <rect width="44" height="44" fill="none"/>
    </clipPath>
    <clipPath id="clip-path-2">
      <circle id="Ellipse_23" data-name="Ellipse 23" cx="20" cy="20" r="20" fill="#fff" stroke="#707070" stroke-width="1"/>
    </clipPath>
  </defs>
  <g id="Analysis_40x40_Dashboard" clip-path="url(#clip-path)">
    <g id="Group_17021" data-name="Group 17021" transform="translate(-1018.926 -440)">
      <g id="Group_17012" data-name="Group 17012" transform="translate(1018.926 439.925)">
        <g id="Ellipse_14" data-name="Ellipse 14" transform="translate(2 2.075)" fill="#fff" stroke="rgba(89,113,149,0.3)" stroke-width="2">
          <circle cx="20" cy="20" r="20" stroke="none"/>
          <circle cx="20" cy="20" r="21" fill="none"/>
        </g>
        <g id="Mask_Group_2" data-name="Mask Group 2" transform="translate(2 2.075)" clip-path="url(#clip-path-2)">
          <g id="Rectangle_249" data-name="Rectangle 249" transform="translate(5.217 14.043)" fill="rgba(89,113,149,0.5)" stroke="#597195" stroke-width="2">
            <rect width="30" height="31" rx="3" stroke="none"/>
            <rect x="1" y="1" width="28" height="29" rx="2" fill="none"/>
          </g>
          <rect id="Rectangle_250" data-name="Rectangle 250" width="14" height="6" rx="1" transform="translate(13.043 12.075)" fill="#597195"/>
          <g id="Group_16454" data-name="Group 16454" transform="translate(14.783 20.055)">
            <circle id="Ellipse_110" data-name="Ellipse 110" cx="5" cy="5" r="5" transform="translate(0.292 -0.055)" fill="#597195"/>
            <g id="Group_17020" data-name="Group 17020" transform="translate(0 1)">
              <rect id="Rectangle_251" data-name="Rectangle 251" width="2" height="6" transform="translate(4.292 0.945)" fill="#fff"/>
              <rect id="Rectangle_252" data-name="Rectangle 252" width="6" height="2" transform="translate(2.292 2.945)" fill="#fff"/>
            </g>
          </g>
          <g id="Ellipse_111" data-name="Ellipse 111" transform="translate(17.261 9.5)" fill="#fff" stroke="#597195" stroke-width="2">
            <circle cx="3" cy="3" r="3" stroke="none"/>
            <circle cx="3" cy="3" r="2" fill="none"/>
          </g>
          <rect id="Rectangle_1118" data-name="Rectangle 1118" width="18" height="2" transform="translate(11.074 32)" fill="#597195"/>
          <rect id="Rectangle_1119" data-name="Rectangle 1119" width="18" height="2" transform="translate(11.074 36)" fill="#597195"/>
        </g>
      </g>
    </g>
  </g>
</svg>
