<svg xmlns="http://www.w3.org/2000/svg" xmlns:xlink="http://www.w3.org/1999/xlink" width="44" height="44" viewBox="0 0 44 44">
  <defs>
    <clipPath id="clip-path">
      <rect width="44" height="44" fill="none"/>
    </clipPath>
    <clipPath id="clip-path-2">
      <circle id="Ellipse_1" data-name="Ellipse 1" cx="20" cy="20" r="20" fill="#fff" stroke="#707070" stroke-width="0.5"/>
    </clipPath>
  </defs>
  <g id="Workflow_40x40_Dashboard" clip-path="url(#clip-path)">
    <g id="Group_17822" data-name="Group 17822" transform="translate(-781 -437)">
      <g id="Group_17073" data-name="Group 17073" transform="translate(9 -3)">
        <g id="Ellipse_5" data-name="Ellipse 5" transform="translate(774 442)" fill="#fff" stroke="rgba(89,113,149,0.3)" stroke-width="2">
          <circle cx="20" cy="20" r="20" stroke="none"/>
          <circle cx="20" cy="20" r="21" fill="none"/>
        </g>
        <g id="Group_1" data-name="Group 1" transform="translate(774 442)" clip-path="url(#clip-path-2)">
          <path id="Path_20864" data-name="Path 20864" d="M.468,0h38" transform="translate(-0.968 19.5)" fill="none" stroke="rgba(89,113,149,0.5)" stroke-width="2"/>
          <g id="Group_17019" data-name="Group 17019" transform="translate(0.532 0.128)">
            <circle id="Ellipse_202" data-name="Ellipse 202" cx="2.5" cy="2.5" r="2.5" transform="translate(24.468 16.872)" fill="#597195" stroke="#fff" stroke-width="2"/>
            <circle id="Ellipse_203" data-name="Ellipse 203" cx="2.5" cy="2.5" r="2.5" transform="translate(14.255 16.872)" fill="#597195" stroke="#fff" stroke-width="2"/>
            <circle id="Ellipse_204" data-name="Ellipse 204" cx="2.5" cy="2.5" r="2.5" transform="translate(4 17)" fill="#597195" stroke="#fff" stroke-width="2"/>
            <circle id="Ellipse_205" data-name="Ellipse 205" cx="2.5" cy="2.5" r="2.5" transform="translate(34.468 16.872)" fill="#597195" stroke="#fff" stroke-width="2"/>
          </g>
          <rect id="Rectangle_1132" data-name="Rectangle 1132" width="8" height="8" rx="1" transform="translate(2 24)" fill="#597195"/>
          <rect id="Rectangle_1133" data-name="Rectangle 1133" width="8" height="8" rx="1" transform="translate(12 24)" fill="#cbd4e2"/>
          <rect id="Rectangle_1134" data-name="Rectangle 1134" width="8" height="8" rx="1" transform="translate(22 24)" fill="#597195"/>
          <rect id="Rectangle_1135" data-name="Rectangle 1135" width="8" height="8" rx="1" transform="translate(32 24)" fill="#cbd4e2"/>
        </g>
      </g>
    </g>
  </g>
</svg>
