<svg xmlns="http://www.w3.org/2000/svg" xmlns:xlink="http://www.w3.org/1999/xlink" width="40" height="40" viewBox="0 0 40 40">
  <defs>
    <clipPath id="clip-path">
      <circle id="Ellipse_1" data-name="Ellipse 1" cx="18" cy="18" r="18" fill="#fff" stroke="#707070" stroke-width="1"/>
    </clipPath>
  </defs>
  <g id="Group_17069" data-name="Group 17069" transform="translate(1 1)">
    <g id="Path_20768" data-name="Path 20768" transform="translate(1 1)" fill="#fff">
      <path d="M18,0A18,18,0,1,1,0,18,18,18,0,0,1,18,0Z" stroke="none"/>
      <path d="M 18 0 C 8.058879852294922 0 0 8.058879852294922 0 18 C 0 27.94112014770508 8.058879852294922 36 18 36 C 27.94112014770508 36 36 27.94112014770508 36 18 C 36 8.058879852294922 27.94112014770508 0 18 0 M 18 -2 C 20.69910049438477 -2 23.31853103637695 -1.470928192138672 25.7855110168457 -0.4274787902832031 C 28.16733932495117 0.5799484252929688 30.30600929260254 2.021751403808594 32.14212799072266 3.857868194580078 C 33.97824859619141 5.693990707397461 35.42005157470703 7.832660675048828 36.4274787902832 10.21449089050293 C 37.47092819213867 12.68147087097168 38 15.30089950561523 38 18 C 38 20.69910049438477 37.47092819213867 23.31853103637695 36.4274787902832 25.7855110168457 C 35.42005157470703 28.16733932495117 33.97824859619141 30.30600929260254 32.14212799072266 32.14212799072266 C 30.30600929260254 33.97824859619141 28.16733932495117 35.42005157470703 25.7855110168457 36.4274787902832 C 23.31853103637695 37.47092819213867 20.69910049438477 38 18 38 C 15.30089950561523 38 12.68147087097168 37.47092819213867 10.21449089050293 36.4274787902832 C 7.832660675048828 35.42005157470703 5.693990707397461 33.97824859619141 3.857868194580078 32.14212799072266 C 2.021751403808594 30.30600929260254 0.5799484252929688 28.16733932495117 -0.4274787902832031 25.7855110168457 C -1.470928192138672 23.31853103637695 -2 20.69910049438477 -2 18 C -2 15.30089950561523 -1.470928192138672 12.68147087097168 -0.4274787902832031 10.21449089050293 C 0.5799484252929688 7.832660675048828 2.021751403808594 5.693990707397461 3.857868194580078 3.857868194580078 C 5.693990707397461 2.021751403808594 7.832660675048828 0.5799484252929688 10.21449089050293 -0.4274787902832031 C 12.68147087097168 -1.470928192138672 15.30089950561523 -2 18 -2 Z" stroke="none" fill="rgba(141,141,141,0.15)"/>
    </g>
    <g id="Mask_Group_1" data-name="Mask Group 1" transform="translate(1 1)" clip-path="url(#clip-path)">
      <g id="squares" transform="translate(28.436 30.351) rotate(-90)">
        <path id="Path" d="M6.948,0,.52.232A.519.519,0,0,0,0,.749V7.143a.519.519,0,0,0,.52.517H6.948a.519.519,0,0,0,.52-.517V.749C7.468.464,7.235,0,6.948,0Z" fill="rgba(141,141,141,0.5)"/>
      </g>
      <g id="squares_copy" data-name="squares copy" transform="translate(19.436 30.351) rotate(-90)">
        <path id="Path-2" data-name="Path" d="M6.948,0,.52.232A.519.519,0,0,0,0,.749V7.143a.519.519,0,0,0,.52.517H6.948a.519.519,0,0,0,.52-.517V.749C7.468.464,7.235,0,6.948,0Z" fill="#8d8d8d"/>
      </g>
      <g id="squares_copy_2" data-name="squares copy 2" transform="translate(1.245 30.351) rotate(-90)">
        <path id="Path-3" data-name="Path" d="M6.948,0,.52.232A.519.519,0,0,0,0,.749V7.143a.519.519,0,0,0,.52.517H6.948a.519.519,0,0,0,.52-.517V.749C7.468.464,7.235,0,6.948,0Z" transform="translate(0 9)" fill="rgba(141,141,141,0.5)"/>
        <path id="Path-4" data-name="Path" d="M6.948,0,.52.232A.519.519,0,0,0,0,.749V7.143a.519.519,0,0,0,.52.517H6.948a.519.519,0,0,0,.52-.517V.749C7.468.464,7.235,0,6.948,0Z" fill="#8d8d8d"/>
      </g>
      <g id="Group_16763" data-name="Group 16763" transform="translate(-1.819 18)">
        <line id="Line_556" data-name="Line 556" x2="33.511" transform="translate(0 1.245)" fill="none" stroke="rgba(141,141,141,0.5)" stroke-width="2"/>
        <g id="Ellipse_202" data-name="Ellipse 202" transform="translate(23.84 0)" fill="#8d8d8d" stroke="#fff" stroke-width="0.5">
          <circle cx="1.34" cy="1.34" r="1.34" stroke="none"/>
          <circle cx="1.34" cy="1.34" r="1.59" fill="none"/>
        </g>
        <g id="Ellipse_203" data-name="Ellipse 203" transform="translate(14.649 0)" fill="#8d8d8d" stroke="#fff" stroke-width="0.5">
          <circle cx="1.34" cy="1.34" r="1.34" stroke="none"/>
          <circle cx="1.34" cy="1.34" r="1.59" fill="none"/>
        </g>
        <g id="Ellipse_204" data-name="Ellipse 204" transform="translate(5.457 0)" fill="#8d8d8d" stroke="#fff" stroke-width="0.5">
          <circle cx="1.34" cy="1.34" r="1.34" stroke="none"/>
          <circle cx="1.34" cy="1.34" r="1.59" fill="none"/>
        </g>
        <g id="Ellipse_205" data-name="Ellipse 205" transform="translate(32.84 0)" fill="#8d8d8d" stroke="#fff" stroke-width="0.5">
          <circle cx="1.34" cy="1.34" r="1.34" stroke="none"/>
          <circle cx="1.34" cy="1.34" r="1.59" fill="none"/>
        </g>
      </g>
    </g>
  </g>
</svg>
