<svg xmlns="http://www.w3.org/2000/svg" xmlns:xlink="http://www.w3.org/1999/xlink" width="44" height="44" viewBox="0 0 44 44">
  <defs>
    <clipPath id="clip-path">
      <circle id="Ellipse_1" data-name="Ellipse 1" cx="20" cy="20" r="20" transform="translate(0 0)" fill="#fff" stroke="#707070" stroke-width="1"/>
    </clipPath>
  </defs>
  <g id="Group_18015" data-name="Group 18015" transform="translate(-337 -197)">
    <g id="Group_17888" data-name="Group 17888" transform="translate(337 197)">
      <g id="Path_20793" data-name="Path 20793" transform="translate(2 2)" fill="#fff">
        <path d="M20,0A20.085,20.085,0,0,1,32.18,4.135,20,20,0,1,1,20,0Z" stroke="none"/>
        <path d="M 20 0 C 8.954299926757813 0 0 8.954299926757813 0 20 C 0 31.04568862915039 8.954299926757813 40 20 40 C 31.04568862915039 40 40 31.04568862915039 40 20 C 40 13.44988059997559 36.85121154785156 7.635208129882813 32.17971801757813 4.135120391845703 C 28.64472007751465 1.483261108398438 24.49557876586914 0 20 0 M 20 -2 C 22.4323902130127 -2 24.82143974304199 -1.602340698242188 27.10079002380371 -0.8180694580078125 C 29.31824111938477 -0.0550994873046875 31.43083953857422 1.0731201171875 33.37989807128906 2.535251617431641 C 38.77717971801758 6.579139709472656 42 13.10828018188477 42 20 C 42 22.96910095214844 41.41804885864258 25.85044860839844 40.27030944824219 28.56399917602539 C 39.16215133666992 31.18399047851563 37.57614135742188 33.53654861450195 35.55635070800781 35.55635070800781 C 33.53654861450195 37.57614135742188 31.18399047851563 39.16215133666992 28.56399917602539 40.27030944824219 C 25.85044860839844 41.41804885864258 22.96910095214844 42 20 42 C 17.03089904785156 42 14.14954948425293 41.41804885864258 11.43598937988281 40.27030944824219 C 8.816009521484375 39.16215133666992 6.46343994140625 37.57614135742188 4.443649291992188 35.55635070800781 C 2.423851013183594 33.53654861450195 0.8378486633300781 31.18399047851563 -0.2703094482421875 28.56399917602539 C -1.418048858642578 25.85044860839844 -2 22.96910095214844 -2 20 C -2 17.03089904785156 -1.418048858642578 14.14954948425293 -0.2703094482421875 11.43598937988281 C 0.8378486633300781 8.816009521484375 2.423851013183594 6.46343994140625 4.443649291992188 4.443649291992188 C 6.46343994140625 2.423851013183594 8.816009521484375 0.8378486633300781 11.43598937988281 -0.2703094482421875 C 14.14954948425293 -1.418048858642578 17.03089904785156 -2 20 -2 Z" stroke="none" fill="rgba(141,141,141,0.5)"/>
      </g>
      <g id="Mask_Group_1" data-name="Mask Group 1" transform="translate(2 2)" clip-path="url(#clip-path)">
        <g id="Group_263" data-name="Group 263" transform="translate(7.247 10.435)">
          <g id="Rectangle_8" data-name="Rectangle 8" transform="translate(5.448)" fill="#8d8d8d" stroke="#8d8d8d" stroke-width="1">
            <rect width="13.412" height="2.874" rx="1.437" stroke="none"/>
            <rect x="0.5" y="0.5" width="12.412" height="1.874" rx="0.937" fill="none"/>
          </g>
          <path id="Path_369" data-name="Path 369" d="M-54.571,1188.5v9.123L-57.22,1204h13.253l-2.7-6.377V1188.5Z" transform="translate(62.862 -1187.063)" fill="rgba(141,141,141,0.5)"/>
          <path id="Path_370" data-name="Path 370" d="M-57.247,1204.679h13.236l6.22,13.11H-62.9Z" transform="translate(62.896 -1187.742)" fill="#8d8d8d"/>
          <circle id="Ellipse_2" data-name="Ellipse 2" cx="1.916" cy="1.916" r="1.916" transform="translate(12.454 18.202)" fill="#fff"/>
          <circle id="Ellipse_3" data-name="Ellipse 3" cx="0.958" cy="0.958" r="0.958" transform="translate(15.328 24.909)" fill="#fff"/>
          <circle id="Ellipse_4" data-name="Ellipse 4" cx="3.832" cy="3.832" r="3.832" transform="translate(4.79 21.946)" fill="#fff"/>
        </g>
      </g>
    </g>
  </g>
</svg>
