<svg xmlns="http://www.w3.org/2000/svg" width="16.756" height="21.729" viewBox="0 0 16.756 21.729">
  <g id="Group_18312" data-name="Group 18312" transform="translate(-1165.197 -21.271)">
    <path id="Shape" d="M8.011,20a2,2,0,0,1-2-2h4.006A2,2,0,0,1,8.011,20Zm8.011-3H0V15.97l2-2.06V8.758A7.455,7.455,0,0,1,3.181,4.575,5.535,5.535,0,0,1,6.509,2.246v-.7a1.5,1.5,0,1,1,3,0v.7a5.526,5.526,0,0,1,3.331,2.332,7.467,7.467,0,0,1,1.175,4.18V13.91l2,2.06V17ZM8.011,4A3.653,3.653,0,0,0,5.074,5.383,5.3,5.3,0,0,0,4.006,8.715V15h8.011V8.715a5.3,5.3,0,0,0-1.068-3.332A3.654,3.654,0,0,0,8.011,4Z" transform="translate(1165.197 23)" fill="#191919"/>
    <g id="Group_2" data-name="Group 2" transform="translate(1178.493 21.271)">
      <ellipse id="Oval_3" data-name="Oval 3" cx="1.731" cy="1.729" rx="1.731" ry="1.729" transform="translate(0)" fill="#c03"/>
    </g>
  </g>
</svg>
