<svg xmlns="http://www.w3.org/2000/svg" xmlns:xlink="http://www.w3.org/1999/xlink" width="44" height="44" viewBox="0 0 44 44">
  <defs>
    <clipPath id="clip-path">
      <circle id="Ellipse_1" data-name="Ellipse 1" cx="20" cy="20" r="20" fill="#fff" stroke="#707070" stroke-width="1"/>
    </clipPath>
  </defs>
  <g id="Group_18017" data-name="Group 18017" transform="translate(-505 -197)">
    <g id="Group_17633" data-name="Group 17633" transform="translate(0 -2)">
      <g id="Group_17071" data-name="Group 17071" transform="translate(506 200)">
        <g id="Ellipse_5" data-name="Ellipse 5" transform="translate(1 1)" fill="#fff" stroke="rgba(141,141,141,0.5)" stroke-width="2">
          <circle cx="20" cy="20" r="20" stroke="none"/>
          <circle cx="20" cy="20" r="21" fill="none"/>
        </g>
        <g id="Mask_Group_1" data-name="Mask Group 1" transform="translate(1 1)" clip-path="url(#clip-path)">
          <path id="Path_386" data-name="Path 386" d="M202.671-9.772l-5.643-2.368a1.79,1.79,0,0,1-.737-.813.472.472,0,0,1,.438-.678H200.7a6.319,6.319,0,0,0,2.581-.332,1.086,1.086,0,0,0,.474-1.642c-1.2-1.661-3.693-5.569-3.773-9.607,0,0-.138-6.215-6.468-6.265a7.418,7.418,0,0,0-3.14.664,4.307,4.307,0,0,1,.129,1.5v3.234a1.646,1.646,0,0,1,.577,1.24V-22.6a1.685,1.685,0,0,1-1.228,1.6,12.15,12.15,0,0,1-1.714,3.347,8.017,8.017,0,0,1-.522.65v2.1a2,2,0,0,0,.472,1.285h1.588a.4.4,0,0,1,.26.723c-.107.082-.21.158-.306.227l4.664,2.258a4.476,4.476,0,0,1,2.56,4.013v1.7h8.083V-6.215A3.965,3.965,0,0,0,202.671-9.772Z" transform="translate(-171.003 45.121)" fill="rgba(141,141,141,0.5)"/>
          <path id="Path_387" data-name="Path 387" d="M192.656-10.849l-5.47-2.7a2.054,2.054,0,0,1-1.153-1.84V-17.5a8.089,8.089,0,0,0,.518-.656,12.33,12.33,0,0,0,1.7-3.378,1.7,1.7,0,0,0,1.218-1.611V-25.4a1.674,1.674,0,0,0-.573-1.252v-3.265S189.576-35,182.6-35s-6.3,5.081-6.3,5.081v3.265a1.674,1.674,0,0,0-.573,1.252v2.258a1.688,1.688,0,0,0,.792,1.421,11.142,11.142,0,0,0,2.071,4.224v2.063a2.051,2.051,0,0,1-1.087,1.805l-5.108,2.747A4.518,4.518,0,0,0,170-6.909v1.828h25.195V-6.8A4.522,4.522,0,0,0,192.656-10.849Z" transform="translate(-169.13 45.495)" fill="#8d8d8d"/>
        </g>
      </g>
    </g>
  </g>
</svg>
