<svg xmlns="http://www.w3.org/2000/svg" xmlns:xlink="http://www.w3.org/1999/xlink" width="36" height="36" viewBox="0 0 36 36">
  <defs>
    <clipPath id="clip-path">
      <circle id="Ellipse_23" data-name="Ellipse 23" cx="16" cy="16" r="16" fill="#fff" stroke="#707070" stroke-width="1"/>
    </clipPath>
  </defs>
  <g id="Group_17152" data-name="Group 17152" transform="translate(-1420 -595)">
    <g id="Group_17122" data-name="Group 17122" transform="translate(-9.074 15)">
      <g id="Group_17075" data-name="Group 17075" transform="translate(1431.074 582)">
        <g id="Path_20863" data-name="Path 20863" transform="translate(0 0)" fill="#fff">
          <path d="M16,0A16,16,0,1,1,0,16,16,16,0,0,1,16,0Z" stroke="none"/>
          <path d="M 16 0 C 7.163440704345703 0 0 7.163440704345703 0 16 C 0 24.8365592956543 7.163440704345703 32 16 32 C 24.8365592956543 32 32 24.8365592956543 32 16 C 32 7.163440704345703 24.8365592956543 0 16 0 M 16 -2 C 18.42910003662109 -2 20.7866096496582 -1.523811340332031 23.00703048706055 -0.5846481323242188 C 25.15069007873535 0.3220405578613281 27.07547950744629 1.619630813598633 28.72792053222656 3.272079467773438 C 30.38036918640137 4.924520492553711 31.67795944213867 6.849309921264648 32.58464813232422 8.992969512939453 C 33.52381134033203 11.2133903503418 34 13.57089996337891 34 16 C 34 18.42910003662109 33.52381134033203 20.7866096496582 32.58464813232422 23.00703048706055 C 31.67795944213867 25.15069007873535 30.38036918640137 27.07547950744629 28.72792053222656 28.72792053222656 C 27.07547950744629 30.38036918640137 25.15069007873535 31.67795944213867 23.00703048706055 32.58464813232422 C 20.7866096496582 33.52381134033203 18.42910003662109 34 16 34 C 13.57089996337891 34 11.2133903503418 33.52381134033203 8.992969512939453 32.58464813232422 C 6.849309921264648 31.67795944213867 4.924520492553711 30.38036918640137 3.272079467773438 28.72792053222656 C 1.619630813598633 27.07547950744629 0.3220405578613281 25.15069007873535 -0.5846481323242188 23.00703048706055 C -1.523811340332031 20.7866096496582 -2 18.42910003662109 -2 16 C -2 13.57089996337891 -1.523811340332031 11.2133903503418 -0.5846481323242188 8.992969512939453 C 0.3220405578613281 6.849309921264648 1.619630813598633 4.924520492553711 3.272079467773438 3.272079467773438 C 4.924520492553711 1.619630813598633 6.849309921264648 0.3220405578613281 8.992969512939453 -0.5846481323242188 C 11.2133903503418 -1.523811340332031 13.57089996337891 -2 16 -2 Z" stroke="none" fill="rgba(89,113,149,0.3)"/>
        </g>
        <g id="Mask_Group_2" data-name="Mask Group 2" transform="translate(0 0)" clip-path="url(#clip-path)">
          <rect id="Rectangle_187" data-name="Rectangle 187" width="28" height="19" rx="1" transform="translate(2 13)" fill="#597195"/>
          <rect id="Rectangle_188" data-name="Rectangle 188" width="25.414" height="20.87" rx="1" transform="translate(3.34 11.2)" fill="#597195"/>
          <rect id="Rectangle_189" data-name="Rectangle 189" width="24" height="10" transform="translate(4 11)" fill="#fff" opacity="0.497"/>
          <path id="Path_1068" data-name="Path 1068" d="M0,.755H4.9L6.764,0H24V9.069H0Z" transform="translate(4 23)" fill="#fff" opacity="0.497"/>
          <rect id="Rectangle_191" data-name="Rectangle 191" width="8" height="5" rx="1" transform="translate(16 25)" fill="#597195"/>
        </g>
      </g>
    </g>
  </g>
</svg>
