<svg xmlns="http://www.w3.org/2000/svg" xmlns:xlink="http://www.w3.org/1999/xlink" width="36" height="36" viewBox="0 0 36 36">
  <defs>
    <clipPath id="clip-path">
      <circle id="Ellipse_1" data-name="Ellipse 1" cx="16" cy="16" r="16" fill="#fff" stroke="#707070" stroke-width="1"/>
    </clipPath>
  </defs>
  <g id="Group_17154" data-name="Group 17154" transform="translate(-2059 -580)">
    <g id="Group_17146" data-name="Group 17146" transform="translate(-20 24)">
      <g id="Group_17144" data-name="Group 17144" transform="translate(-2)">
        <g id="Group_17143" data-name="Group 17143" transform="translate(1)">
          <g id="Group_16971" data-name="Group 16971" transform="translate(2080 557)">
            <g id="Path_20949" data-name="Path 20949" transform="translate(2 1)" fill="#fff">
              <path d="M16,0A16,16,0,0,1,32,16a16.2,16.2,0,0,1-2.147,8.012A16,16,0,1,1,16,0Z" stroke="none"/>
              <path d="M 16 0 C 7.163440704345703 0 0 7.163440704345703 0 16 C 0 24.8365592956543 7.163440704345703 32 16 32 C 22.02653121948242 32 27.27486991882324 28.66810035705566 29.85271072387695 24.01169967651367 C 31.27560997009277 21.45084953308105 32 18.81002044677734 32 16 C 32 7.163440704345703 24.8365592956543 0 16 0 M 16 -2 C 18.42910003662109 -2 20.7866096496582 -1.523811340332031 23.00703048706055 -0.5846481323242188 C 25.15069007873535 0.3220405578613281 27.07547950744629 1.619630813598633 28.72792053222656 3.272079467773438 C 30.38036918640137 4.924520492553711 31.67795944213867 6.849309921264648 32.58464813232422 8.992969512939453 C 33.52381134033203 11.2133903503418 34 13.57089996337891 34 16 C 34 19.13936996459961 33.21527099609375 22.0777702331543 31.60095977783203 24.98308944702148 C 30.13574981689453 27.6297492980957 27.93540000915527 29.87470054626465 25.23929023742676 31.4725399017334 C 22.44931030273438 33.12601852416992 19.25440979003906 34 16 34 C 13.57089996337891 34 11.2133903503418 33.52381134033203 8.992969512939453 32.58464813232422 C 6.849309921264648 31.67795944213867 4.924520492553711 30.38036918640137 3.272079467773438 28.72792053222656 C 1.619630813598633 27.07547950744629 0.3220405578613281 25.15069007873535 -0.5846481323242188 23.00703048706055 C -1.523811340332031 20.7866096496582 -2 18.42910003662109 -2 16 C -2 13.57089996337891 -1.523811340332031 11.2133903503418 -0.5846481323242188 8.992969512939453 C 0.3220405578613281 6.849309921264648 1.619630813598633 4.924520492553711 3.272079467773438 3.272079467773438 C 4.924520492553711 1.619630813598633 6.849309921264648 0.3220405578613281 8.992969512939453 -0.5846481323242188 C 11.2133903503418 -1.523811340332031 13.57089996337891 -2 16 -2 Z" stroke="none" fill="rgba(89,113,149,0.15)"/>
            </g>
            <g id="Mask_Group_1" data-name="Mask Group 1" transform="translate(1 1)" clip-path="url(#clip-path)">
              <g id="home_1_" data-name="home (1)" transform="translate(5 2.643)">
                <path id="Path_20799" data-name="Path 20799" d="M15,1.682l-9,8.39v13.61H24V10.072Z" transform="translate(-3 0)" fill="rgba(89,113,149,0.5)"/>
                <path id="Path_20800" data-name="Path 20800" d="M28.043,44.042H22V34.518a.836.836,0,0,1,.836-.836h4.371a.836.836,0,0,1,.836.836Z" transform="translate(-12.661 -20.36)" fill="#597195"/>
                <path id="Path_20801" data-name="Path 20801" d="M43.453,12.139V6.682H40V8.933Z" transform="translate(-22.553 -2.842)" fill="#597195"/>
                <path id="Path_20802" data-name="Path 20802" d="M1,12.905,12,1.682,23,12.905" transform="translate(0 0)" fill="none" stroke="#597195" stroke-miterlimit="10" stroke-width="2"/>
              </g>
            </g>
          </g>
        </g>
      </g>
    </g>
  </g>
</svg>
