<svg xmlns="http://www.w3.org/2000/svg" xmlns:xlink="http://www.w3.org/1999/xlink" width="34" height="34" viewBox="0 0 34 34">
  <defs>
    <clipPath id="clip-path">
      <circle id="Ellipse_23" data-name="Ellipse 23" cx="16" cy="16" r="16" fill="#fff" stroke="#707070" stroke-width="1"/>
    </clipPath>
  </defs>
  <g id="Group_17116" data-name="Group 17116" transform="translate(-1 -1)">
    <g id="Ellipse_14" data-name="Ellipse 14" transform="translate(2 2)" fill="#fff" stroke="rgba(89,113,149,0.5)" stroke-width="1">
      <circle cx="16" cy="16" r="16" stroke="none"/>
      <circle cx="16" cy="16" r="16.5" fill="none"/>
    </g>
    <g id="Mask_Group_2" data-name="Mask Group 2" transform="translate(2 2)" clip-path="url(#clip-path)">
      <g id="Group_7" data-name="Group 7" transform="translate(0.34 9.191)">
        <g id="nut-icon_copy" data-name="nut-icon copy" transform="translate(5.617 -2.596)">
          <circle id="Oval" cx="1.743" cy="1.743" r="1.743" transform="translate(8.229 8.229)" fill="#597195"/>
          <path id="Shape" d="M11.225,20.085H8.783a.521.521,0,0,1-.492-.407l-.456-2.431a7.547,7.547,0,0,1-1.371-.571L4.454,18.051a.492.492,0,0,1-.277.081.508.508,0,0,1-.359-.142L2.091,16.265a.519.519,0,0,1-.059-.636l1.376-2.011a7.5,7.5,0,0,1-.582-1.412L.408,11.753A.523.523,0,0,1,0,11.26V8.819a.521.521,0,0,1,.408-.492l2.42-.453A7.527,7.527,0,0,1,3.4,6.49L2.005,4.456a.521.521,0,0,1,.059-.636L3.791,2.094a.507.507,0,0,1,.359-.141.489.489,0,0,1,.278.082L6.449,3.417a7.477,7.477,0,0,1,1.385-.578L8.29.408A.522.522,0,0,1,8.783,0h2.441a.521.521,0,0,1,.492.408l.451,2.407a7.507,7.507,0,0,1,1.443.59L15.658,2a.487.487,0,0,1,.277-.082.508.508,0,0,1,.359.141L18.02,3.79a.52.52,0,0,1,.06.636l-1.4,2.047a7.459,7.459,0,0,1,.579,1.4l2.42.454a.518.518,0,0,1,.407.493v2.441a.522.522,0,0,1-.407.493l-2.417.453a7.537,7.537,0,0,1-.591,1.429l1.385,2.024a.522.522,0,0,1-.06.637l-1.725,1.725a.506.506,0,0,1-.359.142.488.488,0,0,1-.277-.082L13.6,16.688a7.577,7.577,0,0,1-1.428.582l-.452,2.407A.522.522,0,0,1,11.225,20.085ZM10.042,5.858a4.172,4.172,0,1,0,1.629.329A4.156,4.156,0,0,0,10.042,5.858Z" transform="translate(0 0)" fill="#597195"/>
        </g>
      </g>
    </g>
  </g>
</svg>
