<svg id="ic_apps" xmlns="http://www.w3.org/2000/svg" width="24.033" height="24" viewBox="0 0 24.033 24">
  <g id="Icon_24px" data-name="Icon 24px">
    <path id="Shape" d="M10.014,16H6.008V12h4.006v4ZM4.006,16H0V12H4.006v4Zm12.016,0H12.017V12h4.005v4Zm0-6H12.017V6h4.005v4Zm-6.008,0H6.008V6h4.006v4ZM4.006,10H0V6H4.006v4ZM16.022,4H12.017V0h4.005V4ZM10.014,4H6.008V0h4.006V4ZM4.006,4H0V0H4.006V4Z" transform="translate(4.006 4)"/>
    <path id="Shape-2" data-name="Shape" d="M0,0H24.033V24H0Z" fill="none"/>
  </g>
</svg>
