<svg xmlns="http://www.w3.org/2000/svg" width="24" height="24" viewBox="0 0 24 24">
  <g id="Group_13480" data-name="Group 13480" transform="translate(-1325 93)">
    <g id="Group_13475" data-name="Group 13475">
      <rect id="Rectangle_9193" data-name="Rectangle 9193" width="24" height="24" transform="translate(1325 -93)" fill="none"/>
      <path id="Path_17523" data-name="Path 17523" d="M12,2A10,10,0,1,0,22,12,10,10,0,0,0,12,2Zm0,3A3,3,0,1,1,9,8,3,3,0,0,1,12,5Zm0,14.2a7.2,7.2,0,0,1-6-3.22c.03-1.99,4-3.08,6-3.08s5.97,1.09,6,3.08A7.2,7.2,0,0,1,12,19.2Z" transform="translate(1325 -93)" fill="#a5d2ff"/>
    </g>
  </g>
</svg>
