<svg xmlns="http://www.w3.org/2000/svg" xmlns:xlink="http://www.w3.org/1999/xlink" width="32" height="32" viewBox="0 0 32 32">
  <defs>
    <clipPath id="clip-path">
      <circle id="Ellipse_23" data-name="Ellipse 23" cx="15" cy="15" r="15" transform="translate(0 0)" fill="#fff" stroke="#707070" stroke-width="1"/>
    </clipPath>
  </defs>
  <g id="Group_17733" data-name="Group 17733" transform="translate(-717 -218)">
    <g id="Group_17368" data-name="Group 17368" transform="translate(163 124)">
      <g id="Group_17359" data-name="Group 17359" transform="translate(11 -205)">
        <g id="Group_17026" data-name="Group 17026" transform="translate(542 298)">
          <g id="Ellipse_14" data-name="Ellipse 14" transform="translate(2 2)" fill="#fff" stroke="rgba(141,141,141,0.5)" stroke-width="1">
            <circle cx="15" cy="15" r="15" stroke="none"/>
            <circle cx="15" cy="15" r="15.5" fill="none"/>
          </g>
          <g id="Mask_Group_2" data-name="Mask Group 2" transform="translate(2 2)" clip-path="url(#clip-path)">
            <path id="Rectangle_220" data-name="Rectangle 220" d="M0,0H10a0,0,0,0,1,0,0V16.081A.919.919,0,0,1,9.081,17H.985A.985.985,0,0,1,0,16.015V0A0,0,0,0,1,0,0Z" transform="translate(10 15)" fill="rgba(141,141,141,0.5)"/>
            <rect id="Rectangle_221" data-name="Rectangle 221" width="12" height="2" transform="translate(9 13)" fill="#8d8d8d"/>
            <path id="Rectangle_222" data-name="Rectangle 222" d="M.355,0H9.678A.322.322,0,0,1,10,.322V6a0,0,0,0,1,0,0H0A0,0,0,0,1,0,6V.355A.355.355,0,0,1,.355,0Z" transform="translate(10 7)" fill="#8d8d8d"/>
          </g>
        </g>
      </g>
    </g>
  </g>
</svg>
