<svg xmlns="http://www.w3.org/2000/svg" xmlns:xlink="http://www.w3.org/1999/xlink" width="44" height="44" viewBox="0 0 44 44">
  <defs>
    <clipPath id="clip-path">
      <circle id="Ellipse_23" data-name="Ellipse 23" cx="20" cy="20" r="20" transform="translate(0 0)" fill="#fff" stroke="#707070" stroke-width="1"/>
    </clipPath>
  </defs>
  <g id="Group_17638" data-name="Group 17638" transform="translate(-1091 -199)">
    <g id="Group_17168" data-name="Group 17168" transform="translate(227 6)">
      <g id="Group_17037" data-name="Group 17037" transform="translate(8 -101)">
        <g id="Group_17034" data-name="Group 17034" transform="translate(856 294)">
          <g id="Ellipse_14" data-name="Ellipse 14" transform="translate(2 2)" fill="#fff" stroke="rgba(141,141,141,0.5)" stroke-width="2">
            <circle cx="20" cy="20" r="20" stroke="none"/>
            <circle cx="20" cy="20" r="21" fill="none"/>
          </g>
          <g id="Mask_Group_2" data-name="Mask Group 2" transform="translate(2 2)" clip-path="url(#clip-path)">
            <path id="Path_1069" data-name="Path 1069" d="M17.3,13.541l-1.13-1.723a2.547,2.547,0,0,1-.422-1.4V9H2.25v1.418a2.549,2.549,0,0,1-.421,1.4L.7,13.541A4.229,4.229,0,0,0,0,15.863V28.114a1.951,1.951,0,0,0,2,1.9H16a1.951,1.951,0,0,0,2-1.9V15.863A4.232,4.232,0,0,0,17.3,13.541Z" transform="translate(2 11)" fill="rgba(141,141,141,0.5)"/>
            <rect id="Rectangle_238" data-name="Rectangle 238" width="14" height="4" transform="translate(4 16)" fill="#8d8d8d"/>
            <rect id="Rectangle_239" data-name="Rectangle 239" width="14" height="10" transform="translate(4 28)" fill="#8b8b8b"/>
            <g id="Group_17035" data-name="Group 17035">
              <path id="Rectangle_220" data-name="Rectangle 220" d="M0,0H6A0,0,0,0,1,6,0V11.081A.919.919,0,0,1,5.081,12H.985A.985.985,0,0,1,0,11.015V0A0,0,0,0,1,0,0Z" transform="translate(22 28)" fill="rgba(141,141,141,0.5)"/>
              <path id="Rectangle_222" data-name="Rectangle 222" d="M.355,0H5.678A.322.322,0,0,1,6,.322V4A0,0,0,0,1,6,4H0A0,0,0,0,1,0,4V.355A.355.355,0,0,1,.355,0Z" transform="translate(22 24)" fill="#8d8d8d"/>
              <rect id="Rectangle_1112" data-name="Rectangle 1112" width="2" height="9" transform="translate(24 30)" fill="#8b8b8b"/>
            </g>
            <g id="Group_17036" data-name="Group 17036" transform="translate(8)">
              <path id="Rectangle_220-2" data-name="Rectangle 220" d="M0,0H6A0,0,0,0,1,6,0V11.081A.919.919,0,0,1,5.081,12H.985A.985.985,0,0,1,0,11.015V0A0,0,0,0,1,0,0Z" transform="translate(22 28)" fill="rgba(141,141,141,0.5)"/>
              <path id="Rectangle_222-2" data-name="Rectangle 222" d="M.355,0H5.678A.322.322,0,0,1,6,.322V4A0,0,0,0,1,6,4H0A0,0,0,0,1,0,4V.355A.355.355,0,0,1,.355,0Z" transform="translate(22 24)" fill="#8d8d8d"/>
              <rect id="Rectangle_1112-2" data-name="Rectangle 1112" width="2" height="9" transform="translate(24 30)" fill="#8b8b8b"/>
            </g>
          </g>
        </g>
      </g>
    </g>
  </g>
</svg>
