<svg xmlns="http://www.w3.org/2000/svg" xmlns:xlink="http://www.w3.org/1999/xlink" width="44" height="44" viewBox="0 0 44 44">
  <defs>
    <clipPath id="clip-path">
      <circle id="Ellipse_23" data-name="Ellipse 23" cx="20" cy="20" r="20" transform="translate(0 0)" fill="#7fb2e6" stroke="#707070" stroke-width="1"/>
    </clipPath>
  </defs>
  <g id="Group_17659" data-name="Group 17659" transform="translate(-1495 -393)">
    <g id="Group_17525" data-name="Group 17525" transform="translate(-18 3)">
      <g id="Ellipse_14" data-name="Ellipse 14" transform="translate(1515 392)" fill="#fff" stroke="#7fb2e5" stroke-width="2">
        <circle cx="20" cy="20" r="20" stroke="none"/>
        <circle cx="20" cy="20" r="21" fill="none"/>
      </g>
      <g id="Mask_Group_2" data-name="Mask Group 2" transform="translate(1515 392)" clip-path="url(#clip-path)">
        <g id="Group_16421" data-name="Group 16421" transform="translate(6 10)">
          <rect id="Rectangle_198" data-name="Rectangle 198" width="28" height="31.304" rx="1" transform="translate(0 0)" fill="#06c"/>
          <rect id="Rectangle_195" data-name="Rectangle 195" width="24.261" height="31.304" transform="translate(1.87 0)" fill="#7fb2e6"/>
          <path id="Path_20903" data-name="Path 20903" d="M1,0H19a1,1,0,0,1,1,1V7a1,1,0,0,1-1,1H1A1,1,0,0,1,0,7V1A1,1,0,0,1,1,0Z" transform="translate(4 10)" fill="#06c"/>
          <rect id="Rectangle_196" data-name="Rectangle 196" width="5.689" height="3.886" rx="1" transform="translate(4 20)" fill="#06c"/>
        </g>
      </g>
    </g>
  </g>
</svg>
