<svg xmlns="http://www.w3.org/2000/svg" xmlns:xlink="http://www.w3.org/1999/xlink" width="36" height="36" viewBox="0 0 36 36">
  <defs>
    <clipPath id="clip-path">
      <circle id="Ellipse_265" data-name="Ellipse 265" cx="16" cy="16" r="16" fill="#fff" stroke="#707070" stroke-width="1"/>
    </clipPath>
  </defs>
  <g id="Group_17121" data-name="Group 17121" transform="translate(-1705.074 -578)">
    <g id="Group_17153" data-name="Group 17153">
      <g id="Path_20942" data-name="Path 20942" transform="translate(1707.074 580)" fill="#fff">
        <path d="M16,0A16,16,0,1,1,0,16,16,16,0,0,1,16,0Z" stroke="none"/>
        <path d="M 16 0 C 7.163440704345703 0 0 7.163440704345703 0 16 C 0 24.8365592956543 7.163440704345703 32 16 32 C 24.8365592956543 32 32 24.8365592956543 32 16 C 32 7.163440704345703 24.8365592956543 0 16 0 M 16 -2 C 18.42910003662109 -2 20.7866096496582 -1.523811340332031 23.00703048706055 -0.5846481323242188 C 25.15069007873535 0.3220405578613281 27.07547950744629 1.619630813598633 28.72792053222656 3.272079467773438 C 30.38036918640137 4.924520492553711 31.67795944213867 6.849309921264648 32.58464813232422 8.992969512939453 C 33.52381134033203 11.2133903503418 34 13.57089996337891 34 16 C 34 18.42910003662109 33.52381134033203 20.7866096496582 32.58464813232422 23.00703048706055 C 31.67795944213867 25.15069007873535 30.38036918640137 27.07547950744629 28.72792053222656 28.72792053222656 C 27.07547950744629 30.38036918640137 25.15069007873535 31.67795944213867 23.00703048706055 32.58464813232422 C 20.7866096496582 33.52381134033203 18.42910003662109 34 16 34 C 13.57089996337891 34 11.2133903503418 33.52381134033203 8.992969512939453 32.58464813232422 C 6.849309921264648 31.67795944213867 4.924520492553711 30.38036918640137 3.272079467773438 28.72792053222656 C 1.619630813598633 27.07547950744629 0.3220405578613281 25.15069007873535 -0.5846481323242188 23.00703048706055 C -1.523811340332031 20.7866096496582 -2 18.42910003662109 -2 16 C -2 13.57089996337891 -1.523811340332031 11.2133903503418 -0.5846481323242188 8.992969512939453 C 0.3220405578613281 6.849309921264648 1.619630813598633 4.924520492553711 3.272079467773438 3.272079467773438 C 4.924520492553711 1.619630813598633 6.849309921264648 0.3220405578613281 8.992969512939453 -0.5846481323242188 C 11.2133903503418 -1.523811340332031 13.57089996337891 -2 16 -2 Z" stroke="none" fill="rgba(89,113,149,0.3)"/>
      </g>
      <g id="Mask_Group_6" data-name="Mask Group 6" transform="translate(1707.074 580)" clip-path="url(#clip-path)">
        <g id="nut-icon" transform="translate(0.34 19.915)">
          <circle id="Oval" cx="1.2" cy="1.2" r="1.2" transform="translate(5.877 5.877)" fill="#597195"/>
          <path id="Shape" d="M8.048,14.4H6.3a.374.374,0,0,1-.353-.292l-.327-1.743a5.41,5.41,0,0,1-.983-.409l-1.442.987a.353.353,0,0,1-.2.058.364.364,0,0,1-.257-.1L1.5,11.661a.372.372,0,0,1-.042-.456l.986-1.442a5.359,5.359,0,0,1-.417-1.012L.293,8.426A.375.375,0,0,1,0,8.073V6.323A.374.374,0,0,1,.293,5.97l1.735-.325a5.388,5.388,0,0,1,.408-.992l-1-1.458a.373.373,0,0,1,.043-.456L2.718,1.5a.364.364,0,0,1,.257-.1.35.35,0,0,1,.2.059l1.449.991a5.356,5.356,0,0,1,.993-.415L5.944.293A.374.374,0,0,1,6.3,0h1.75A.373.373,0,0,1,8.4.293l.323,1.725a5.383,5.383,0,0,1,1.035.423l1.468-1a.355.355,0,0,1,.2-.059.364.364,0,0,1,.257.1l1.238,1.238a.373.373,0,0,1,.043.456l-1,1.467a5.358,5.358,0,0,1,.415,1l1.735.325a.372.372,0,0,1,.292.354v1.75a.375.375,0,0,1-.292.353l-1.733.325a5.406,5.406,0,0,1-.424,1.024l.993,1.451a.374.374,0,0,1-.043.456L11.664,12.92a.363.363,0,0,1-.257.1.35.35,0,0,1-.2-.059l-1.46-1a5.424,5.424,0,0,1-1.024.417L8.4,14.108A.374.374,0,0,1,8.048,14.4ZM7.268,4.251a3.009,3.009,0,1,0,1.175.237A3,3,0,0,0,7.268,4.251Z" transform="translate(0 0)" fill="#597195"/>
        </g>
        <g id="nut-icon_copy" data-name="nut-icon copy" transform="translate(13.957 12.596)">
          <circle id="Oval-2" data-name="Oval" cx="1.6" cy="1.6" r="1.6" transform="translate(8.187 8.187)" fill="rgba(89,113,149,0.5)"/>
          <path id="Shape-2" data-name="Shape" d="M11.177,20H8.746a.519.519,0,0,1-.49-.406L7.8,17.173A7.516,7.516,0,0,1,6.437,16.6l-2,1.37a.49.49,0,0,1-.276.081.506.506,0,0,1-.357-.141L2.083,16.2a.517.517,0,0,1-.059-.633l1.37-2a7.463,7.463,0,0,1-.58-1.406L.406,11.7A.52.52,0,0,1,0,11.212V8.782a.519.519,0,0,1,.406-.49L2.815,7.84a7.5,7.5,0,0,1,.567-1.378L2,4.437A.519.519,0,0,1,2.056,3.8L3.775,2.085a.5.5,0,0,1,.357-.141.487.487,0,0,1,.277.082L6.422,3.4A7.445,7.445,0,0,1,7.8,2.827L8.255.407A.52.52,0,0,1,8.746,0h2.431a.519.519,0,0,1,.49.407l.449,2.4a7.476,7.476,0,0,1,1.437.587L15.592,2a.485.485,0,0,1,.276-.082.506.506,0,0,1,.357.141l1.719,1.719a.518.518,0,0,1,.06.634L16.609,6.446a7.427,7.427,0,0,1,.576,1.394l2.409.452A.516.516,0,0,1,20,8.783v2.431a.52.52,0,0,1-.405.491l-2.407.451a7.506,7.506,0,0,1-.589,1.423l1.38,2.016a.519.519,0,0,1-.06.634L16.2,17.945a.5.5,0,0,1-.357.142.486.486,0,0,1-.276-.082l-2.027-1.387a7.545,7.545,0,0,1-1.422.58l-.45,2.4A.52.52,0,0,1,11.177,20ZM10,5.833a4.155,4.155,0,1,0,1.622.327A4.138,4.138,0,0,0,10,5.833Z" transform="translate(0 0)" fill="rgba(74,98,133,0.51)"/>
        </g>
        <g id="nut-icon_copy_2" data-name="nut-icon copy 2" transform="translate(5.106 8)">
          <ellipse id="Oval-3" data-name="Oval" cx="1" cy="0.968" rx="1" ry="0.968" transform="translate(4.835 4.464)" fill="#597195"/>
          <path id="Shape-3" data-name="Shape" d="M6.259,11.2H4.9a.291.291,0,0,1-.275-.227L4.369,9.617A4.2,4.2,0,0,1,3.6,9.3l-1.121.767a.274.274,0,0,1-.155.045.283.283,0,0,1-.2-.079L1.166,9.07a.289.289,0,0,1-.033-.355L1.9,7.594a4.172,4.172,0,0,1-.325-.787L.227,6.554A.292.292,0,0,1,0,6.279V4.918a.291.291,0,0,1,.227-.274l1.349-.253a4.2,4.2,0,0,1,.318-.772L1.118,2.485a.29.29,0,0,1,.033-.355l.963-.963a.282.282,0,0,1,.2-.079.273.273,0,0,1,.155.046L3.6,1.905a4.18,4.18,0,0,1,.772-.322L4.623.228A.291.291,0,0,1,4.9,0H6.259a.29.29,0,0,1,.274.228L6.785,1.57a4.17,4.17,0,0,1,.8.329l1.142-.781a.271.271,0,0,1,.154-.046.283.283,0,0,1,.2.079l.963.963a.29.29,0,0,1,.033.355L9.3,3.61a4.164,4.164,0,0,1,.323.781l1.349.253a.289.289,0,0,1,.227.275V6.279a.291.291,0,0,1-.227.275l-1.348.253a4.2,4.2,0,0,1-.33.8l.773,1.129a.291.291,0,0,1-.034.355l-.962.962a.282.282,0,0,1-.2.079.272.272,0,0,1-.155-.046L7.582,9.306a4.227,4.227,0,0,1-.8.325l-.252,1.342A.291.291,0,0,1,6.259,11.2ZM5.53,3.22A2.31,2.31,0,1,0,7.163,3.9,2.295,2.295,0,0,0,5.53,3.22Z" transform="translate(0)" fill="#597195"/>
        </g>
      </g>
    </g>
  </g>
</svg>
