<svg xmlns="http://www.w3.org/2000/svg" xmlns:xlink="http://www.w3.org/1999/xlink" width="44" height="44" viewBox="0 0 44 44">
  <defs>
    <clipPath id="clip-path">
      <circle id="Ellipse_23" data-name="Ellipse 23" cx="20" cy="20" r="20" transform="translate(0 0)" fill="#fff" stroke="#707070" stroke-width="1"/>
    </clipPath>
  </defs>
  <g id="Group_17696" data-name="Group 17696" transform="translate(-1580 -777)">
    <g id="Group_17128" data-name="Group 17128" transform="translate(424 312)">
      <g id="Group_17083" data-name="Group 17083" transform="translate(6 199)">
        <g id="Path_20923" data-name="Path 20923" transform="translate(1152 268)" fill="#fff">
          <path d="M 20 41 C 17.16546058654785 41 14.41518020629883 40.44462966918945 11.8255500793457 39.34931182861328 C 9.324760437011719 38.29156112670898 7.079040050506592 36.77751922607422 5.150760173797607 34.84923934936523 C 3.222480058670044 32.92095947265625 1.708439946174622 30.67523956298828 0.6506999731063843 28.17445945739746 C -0.4446299970149994 25.58482933044434 -1 22.83453941345215 -1 20 C -1 17.16546058654785 -0.4446299970149994 14.41518020629883 0.6506999731063843 11.8255500793457 C 1.708439946174622 9.324760437011719 3.222480058670044 7.079040050506592 5.150760173797607 5.150760173797607 C 7.079040050506592 3.222480058670044 9.324760437011719 1.708439946174622 11.8255500793457 0.6506999731063843 C 14.41518020629883 -0.4446299970149994 17.16546058654785 -1 20 -1 C 22.83453941345215 -1 25.58482933044434 -0.4446299970149994 28.17445945739746 0.6506999731063843 C 30.67523956298828 1.708439946174622 32.92095947265625 3.222480058670044 34.84923934936523 5.150760173797607 C 36.77751922607422 7.079040050506592 38.29156112670898 9.324760437011719 39.34931182861328 11.8255500793457 C 40.44462966918945 14.41518020629883 41 17.16546058654785 41 20 C 41 22.83453941345215 40.44462966918945 25.58482933044434 39.34931182861328 28.17445945739746 C 38.29156112670898 30.67523956298828 36.77751922607422 32.92095947265625 34.84923934936523 34.84923934936523 C 32.92095947265625 36.77751922607422 30.67523956298828 38.29156112670898 28.17445945739746 39.34931182861328 C 25.58482933044434 40.44462966918945 22.83453941345215 41 20 41 Z" stroke="none"/>
          <path d="M 20 0 C 8.954299926757813 0 0 8.954299926757813 0 20 C 0 31.04570007324219 8.954299926757813 40 20 40 C 31.04570007324219 40 40 31.04570007324219 40 20 C 40 8.954299926757813 31.04570007324219 0 20 0 M 20 -2 C 22.96910095214844 -2 25.85044860839844 -1.418048858642578 28.56401062011719 -0.2703094482421875 C 31.18399047851563 0.8378486633300781 33.53656005859375 2.423851013183594 35.55635070800781 4.443649291992188 C 37.57614898681641 6.46343994140625 39.16215133666992 8.816009521484375 40.27030944824219 11.43598937988281 C 41.41804885864258 14.14954948425293 42 17.03089904785156 42 20 C 42 22.96910095214844 41.41804885864258 25.85044860839844 40.27030944824219 28.56401062011719 C 39.16215133666992 31.18399047851563 37.57614898681641 33.53656005859375 35.55635070800781 35.55635070800781 C 33.53656005859375 37.57614898681641 31.18399047851563 39.16215133666992 28.56401062011719 40.27030944824219 C 25.85044860839844 41.41804885864258 22.96910095214844 42 20 42 C 17.03089904785156 42 14.14954948425293 41.41804885864258 11.43598937988281 40.27030944824219 C 8.816009521484375 39.16215133666992 6.46343994140625 37.57614898681641 4.443649291992188 35.55635070800781 C 2.423851013183594 33.53656005859375 0.8378486633300781 31.18399047851563 -0.2703094482421875 28.56401062011719 C -1.418048858642578 25.85044860839844 -2 22.96910095214844 -2 20 C -2 17.03089904785156 -1.418048858642578 14.14954948425293 -0.2703094482421875 11.43598937988281 C 0.8378486633300781 8.816009521484375 2.423851013183594 6.46343994140625 4.443649291992188 4.443649291992188 C 6.46343994140625 2.423851013183594 8.816009521484375 0.8378486633300781 11.43598937988281 -0.2703094482421875 C 14.14954948425293 -1.418048858642578 17.03089904785156 -2 20 -2 Z" stroke="none" fill="#e67f99"/>
        </g>
        <g id="Mask_Group_2" data-name="Mask Group 2" transform="translate(1152 268)" clip-path="url(#clip-path)">
          <path id="Path_20924" data-name="Path 20924" d="M1,0H31a1,1,0,0,1,1,1V25a1,1,0,0,1-1,1H1a1,1,0,0,1-1-1V1A1,1,0,0,1,1,0Z" transform="translate(4 14)" fill="#c03"/>
          <path id="Path_20940" data-name="Path 20940" d="M0,0H28V16H0Z" transform="translate(6 14)" fill="#e67f99"/>
          <rect id="Rectangle_235" data-name="Rectangle 235" width="28" height="8" transform="translate(6 32)" fill="#e67f99"/>
          <path id="Path_1074" data-name="Path 1074" d="M0,0H20V10H0Z" transform="translate(10 14)" fill="#c03"/>
          <rect id="Rectangle_237" data-name="Rectangle 237" width="20" height="2" transform="translate(10 26)" fill="#c03"/>
        </g>
      </g>
    </g>
  </g>
</svg>
