<svg xmlns="http://www.w3.org/2000/svg" xmlns:xlink="http://www.w3.org/1999/xlink" width="44" height="44" viewBox="0 0 44 44">
  <defs>
    <clipPath id="clip-path">
      <circle id="Ellipse_23" data-name="Ellipse 23" cx="20" cy="20" r="20" transform="translate(0 0)" fill="#fff" stroke="#707070" stroke-width="1"/>
    </clipPath>
  </defs>
  <g id="Group_17660" data-name="Group 17660" transform="translate(-1580 -393)">
    <g id="Group_17040" data-name="Group 17040" transform="translate(430 127)">
      <g id="Ellipse_14" data-name="Ellipse 14" transform="translate(1152 268)" fill="#fff" stroke="#7fb2e5" stroke-width="2">
        <circle cx="20" cy="20" r="20" stroke="none"/>
        <circle cx="20" cy="20" r="21" fill="none"/>
      </g>
      <g id="Mask_Group_2" data-name="Mask Group 2" transform="translate(1152 268)" clip-path="url(#clip-path)">
        <path id="Path_20905" data-name="Path 20905" d="M1,0H31a1,1,0,0,1,1,1V25a1,1,0,0,1-1,1H1a1,1,0,0,1-1-1V1A1,1,0,0,1,1,0Z" transform="translate(4 14)" fill="#06c"/>
        <path id="Path_20904" data-name="Path 20904" d="M0,0H28V16H0Z" transform="translate(6 14)" fill="#7fb2e6"/>
        <rect id="Rectangle_235" data-name="Rectangle 235" width="28" height="8" transform="translate(6 32)" fill="#7fb2e6"/>
        <path id="Path_1074" data-name="Path 1074" d="M0,0H20V10H0Z" transform="translate(10 14)" fill="#06c"/>
        <rect id="Rectangle_237" data-name="Rectangle 237" width="20" height="2" transform="translate(10 26)" fill="#06c"/>
      </g>
    </g>
  </g>
</svg>
