<svg xmlns="http://www.w3.org/2000/svg" xmlns:xlink="http://www.w3.org/1999/xlink" width="44" height="44" viewBox="0 0 44 44">
  <defs>
    <clipPath id="clip-path">
      <circle id="Ellipse_109" data-name="Ellipse 109" cx="20" cy="20" r="20" transform="translate(0)" fill="#fff" stroke="#707070" stroke-width="1"/>
    </clipPath>
  </defs>
  <g id="Group_17635" data-name="Group 17635" transform="translate(-810 -199)">
    <g id="Group_17067" data-name="Group 17067" transform="translate(176 8)">
      <g id="Ellipse_108" data-name="Ellipse 108" transform="translate(636 193)" fill="#fff" stroke="rgba(141,141,141,0.5)" stroke-width="2">
        <circle cx="20" cy="20" r="20" stroke="none"/>
        <circle cx="20" cy="20" r="21" fill="none"/>
      </g>
      <g id="Mask_Group_5" data-name="Mask Group 5" transform="translate(636 193)" clip-path="url(#clip-path)">
        <path id="Path_1006" data-name="Path 1006" d="M277.624-15.955l-1.371-14.431h5.217L280.1-15.955a1.177,1.177,0,0,1-1.327.871A1.125,1.125,0,0,1,277.624-15.955Z" transform="translate(-249.253 42.386)" fill="rgba(141,141,141,0.5)" fill-rule="evenodd"/>
        <path id="Path_20882" data-name="Path 20882" d="M277.624-15.955l-1.371-14.431h5.217L280.1-15.955a1.177,1.177,0,0,1-1.327.871A1.125,1.125,0,0,1,277.624-15.955Z" transform="translate(-255.47 42.386)" fill="rgba(141,141,141,0.5)" fill-rule="evenodd"/>
        <path id="Path_20883" data-name="Path 20883" d="M277.624-15.955l-1.371-14.431h5.217L280.1-15.955a1.177,1.177,0,0,1-1.327.871A1.125,1.125,0,0,1,277.624-15.955Z" transform="translate(-261.47 42.386)" fill="rgba(141,141,141,0.5)" fill-rule="evenodd"/>
        <path id="Path_20886" data-name="Path 20886" d="M277.624-15.955l-1.371-14.431h5.217L280.1-15.955a1.177,1.177,0,0,1-1.327.871A1.125,1.125,0,0,1,277.624-15.955Z" transform="translate(-273.47 42.386)" fill="rgba(141,141,141,0.5)" fill-rule="evenodd"/>
        <path id="Path_20885" data-name="Path 20885" d="M277.624-15.955l-1.371-14.431h5.217L280.1-15.955a1.177,1.177,0,0,1-1.327.871A1.125,1.125,0,0,1,277.624-15.955Z" transform="translate(-267.47 42.386)" fill="rgba(141,141,141,0.5)" fill-rule="evenodd"/>
        <rect id="Rectangle_181" data-name="Rectangle 181" width="42" height="2" rx="1" transform="translate(-6 12)" fill="#8d8d8d"/>
        <rect id="Rectangle_182" data-name="Rectangle 182" width="2" height="8" transform="translate(34 12)" fill="#8d8d8d"/>
      </g>
    </g>
  </g>
</svg>
