<svg xmlns="http://www.w3.org/2000/svg" xmlns:xlink="http://www.w3.org/1999/xlink" width="44" height="44" viewBox="0 0 44 44">
  <defs>
    <clipPath id="clip-path">
      <circle id="Ellipse_107" data-name="Ellipse 107" cx="20" cy="20" r="20" transform="translate(1 0)" fill="#fff" stroke="#707070" stroke-width="1"/>
    </clipPath>
  </defs>
  <g id="Group_17636" data-name="Group 17636" transform="translate(-904 -199)">
    <g id="Group_17392" data-name="Group 17392" transform="translate(201 6)">
      <g id="Group_17391" data-name="Group 17391">
        <g id="Group_17028" data-name="Group 17028" transform="translate(370 -924)">
          <g id="Ellipse_26" data-name="Ellipse 26" transform="translate(335 1119)" fill="#fff" stroke="rgba(141,141,141,0.5)" stroke-width="2">
            <circle cx="20" cy="20" r="20" stroke="none"/>
            <circle cx="20" cy="20" r="21" fill="none"/>
          </g>
          <g id="Mask_Group_4" data-name="Mask Group 4" transform="translate(334 1119)" clip-path="url(#clip-path)">
            <path id="Path_948" data-name="Path 948" d="M0,0H19.673L22,2.906V30.87H0Z" transform="translate(11 10)" fill="#8d8d8d"/>
            <g id="Group_17066" data-name="Group 17066">
              <circle id="Ellipse_99" data-name="Ellipse 99" cx="1" cy="1" r="1" transform="translate(13 12)" fill="#fff"/>
              <circle id="Ellipse_222" data-name="Ellipse 222" cx="1" cy="1" r="1" transform="translate(13 16)" fill="#fff"/>
              <circle id="Ellipse_227" data-name="Ellipse 227" cx="1" cy="1" r="1" transform="translate(13 20)" fill="#fff"/>
              <circle id="Ellipse_232" data-name="Ellipse 232" cx="1" cy="1" r="1" transform="translate(13 24)" fill="#fff"/>
              <circle id="Ellipse_237" data-name="Ellipse 237" cx="1" cy="1" r="1" transform="translate(13 28)" fill="#fff"/>
              <circle id="Ellipse_242" data-name="Ellipse 242" cx="1" cy="1" r="1" transform="translate(13 32)" fill="#fff"/>
              <path id="Path_20881" data-name="Path 20881" d="M1,0A1,1,0,1,1,0,1,1,1,0,0,1,1,0Z" transform="translate(13 36)" fill="#fff"/>
              <circle id="Ellipse_214" data-name="Ellipse 214" cx="1" cy="1" r="1" transform="translate(17 12)" fill="#fff"/>
              <circle id="Ellipse_221" data-name="Ellipse 221" cx="1" cy="1" r="1" transform="translate(17 16)" fill="#fff"/>
              <circle id="Ellipse_226" data-name="Ellipse 226" cx="1" cy="1" r="1" transform="translate(17 20)" fill="#fff"/>
              <circle id="Ellipse_231" data-name="Ellipse 231" cx="1" cy="1" r="1" transform="translate(17 24)" fill="#fff"/>
              <circle id="Ellipse_236" data-name="Ellipse 236" cx="1" cy="1" r="1" transform="translate(17 28)" fill="#fff"/>
              <circle id="Ellipse_241" data-name="Ellipse 241" cx="1" cy="1" r="1" transform="translate(17 32)" fill="#fff"/>
              <circle id="Ellipse_246" data-name="Ellipse 246" cx="1" cy="1" r="1" transform="translate(17 36)" fill="#fff"/>
              <circle id="Ellipse_215" data-name="Ellipse 215" cx="1" cy="1" r="1" transform="translate(21 12)" fill="#fff"/>
              <circle id="Ellipse_220" data-name="Ellipse 220" cx="1" cy="1" r="1" transform="translate(21 16)" fill="#fff"/>
              <circle id="Ellipse_225" data-name="Ellipse 225" cx="1" cy="1" r="1" transform="translate(21 20)" fill="#fff"/>
              <circle id="Ellipse_230" data-name="Ellipse 230" cx="1" cy="1" r="1" transform="translate(21 24)" fill="#fff"/>
              <circle id="Ellipse_235" data-name="Ellipse 235" cx="1" cy="1" r="1" transform="translate(21 28)" fill="#fff"/>
              <circle id="Ellipse_240" data-name="Ellipse 240" cx="1" cy="1" r="1" transform="translate(21 32)" fill="#fff"/>
              <circle id="Ellipse_245" data-name="Ellipse 245" cx="1" cy="1" r="1" transform="translate(21 36)" fill="#fff"/>
              <circle id="Ellipse_216" data-name="Ellipse 216" cx="1" cy="1" r="1" transform="translate(25 12)" fill="#fff"/>
              <circle id="Ellipse_219" data-name="Ellipse 219" cx="1" cy="1" r="1" transform="translate(25 16)" fill="#fff"/>
              <circle id="Ellipse_224" data-name="Ellipse 224" cx="1" cy="1" r="1" transform="translate(25 20)" fill="#fff"/>
              <circle id="Ellipse_229" data-name="Ellipse 229" cx="1" cy="1" r="1" transform="translate(25 24)" fill="#fff"/>
              <circle id="Ellipse_234" data-name="Ellipse 234" cx="1" cy="1" r="1" transform="translate(25 28)" fill="#fff"/>
              <circle id="Ellipse_239" data-name="Ellipse 239" cx="1" cy="1" r="1" transform="translate(25 32)" fill="#fff"/>
              <circle id="Ellipse_244" data-name="Ellipse 244" cx="1" cy="1" r="1" transform="translate(25 36)" fill="#fff"/>
              <circle id="Ellipse_217" data-name="Ellipse 217" cx="1" cy="1" r="1" transform="translate(29 12)" fill="#fff"/>
              <circle id="Ellipse_218" data-name="Ellipse 218" cx="1" cy="1" r="1" transform="translate(29 16)" fill="#fff"/>
              <circle id="Ellipse_223" data-name="Ellipse 223" cx="1" cy="1" r="1" transform="translate(29 20)" fill="#fff"/>
              <path id="Path_20880" data-name="Path 20880" d="M1,0A1,1,0,1,1,0,1,1,1,0,0,1,1,0Z" transform="translate(29 24)" fill="#fff"/>
              <circle id="Ellipse_233" data-name="Ellipse 233" cx="1" cy="1" r="1" transform="translate(29 28)" fill="#fff"/>
              <circle id="Ellipse_238" data-name="Ellipse 238" cx="1" cy="1" r="1" transform="translate(29 32)" fill="#fff"/>
              <circle id="Ellipse_243" data-name="Ellipse 243" cx="1" cy="1" r="1" transform="translate(29 36)" fill="#fff"/>
            </g>
          </g>
        </g>
      </g>
    </g>
  </g>
</svg>
