<svg id="Group_18011" data-name="Group 18011" xmlns="http://www.w3.org/2000/svg" xmlns:xlink="http://www.w3.org/1999/xlink" width="44" height="44" viewBox="0 0 44 44">
  <defs>
    <clipPath id="clip-path">
      <circle id="Ellipse_1" data-name="Ellipse 1" cx="20" cy="20" r="20" transform="translate(0 0)" fill="#c6c6c6" stroke="#c6c6c6" stroke-width="1"/>
    </clipPath>
  </defs>
  <g id="Path_20793" data-name="Path 20793" transform="translate(2 2)" fill="#c6c6c6">
    <path d="M 20 41 C 17.16546058654785 41 14.41518020629883 40.44462966918945 11.8255500793457 39.34930038452148 C 9.324760437011719 38.29156112670898 7.079040050506592 36.77751922607422 5.150760173797607 34.84923934936523 C 3.222480058670044 32.92095947265625 1.708439946174622 30.67523956298828 0.6506999731063843 28.1744499206543 C -0.4446299970149994 25.58481979370117 -1 22.83453941345215 -1 20 C -1 17.16546058654785 -0.4446299970149994 14.41518020629883 0.6506999731063843 11.8255500793457 C 1.708439946174622 9.324760437011719 3.222480058670044 7.079040050506592 5.150760173797607 5.150760173797607 C 7.079040050506592 3.222480058670044 9.324760437011719 1.708439946174622 11.8255500793457 0.6506999731063843 C 14.41518020629883 -0.4446299970149994 17.16546058654785 -1 20 -1 C 22.32143020629883 -1 24.60100936889648 -0.6206499934196472 26.77543067932129 0.1275199949741364 C 28.89413070678711 0.8565199971199036 30.9143009185791 1.93572998046875 32.77981185913086 3.335190057754517 C 37.92684936523438 7.191579818725586 41 13.42154979705811 41 20 C 41 22.83453941345215 40.44462966918945 25.58481979370117 39.34930038452148 28.1744499206543 C 38.29156112670898 30.67523956298828 36.77751922607422 32.92095947265625 34.84923934936523 34.84923934936523 C 32.92095947265625 36.77751922607422 30.67523956298828 38.29156112670898 28.1744499206543 39.34930038452148 C 25.58481979370117 40.44462966918945 22.83453941345215 41 20 41 Z" stroke="none"/>
    <path d="M 20 0 C 8.954299926757813 0 0 8.954299926757813 0 20 C 0 31.04568862915039 8.954299926757813 40 20 40 C 31.04568862915039 40 40 31.04568862915039 40 20 C 40 13.44988059997559 36.85121154785156 7.635208129882813 32.17971801757813 4.135120391845703 C 28.64472007751465 1.483261108398438 24.49557876586914 0 20 0 M 20 -2 C 22.4323902130127 -2 24.82143974304199 -1.602340698242188 27.10079002380371 -0.8180694580078125 C 29.31824111938477 -0.0550994873046875 31.43083953857422 1.0731201171875 33.37989807128906 2.535251617431641 C 38.77717971801758 6.579139709472656 42 13.10828018188477 42 20 C 42 22.96910095214844 41.41804885864258 25.85044860839844 40.27030944824219 28.56399917602539 C 39.16215133666992 31.18399047851563 37.57614135742188 33.53654861450195 35.55635070800781 35.55635070800781 C 33.53654861450195 37.57614135742188 31.18399047851563 39.16215133666992 28.56399917602539 40.27030944824219 C 25.85044860839844 41.41804885864258 22.96910095214844 42 20 42 C 17.03089904785156 42 14.14954948425293 41.41804885864258 11.43598937988281 40.27030944824219 C 8.816009521484375 39.16215133666992 6.46343994140625 37.57614135742188 4.443649291992188 35.55635070800781 C 2.423851013183594 33.53654861450195 0.8378486633300781 31.18399047851563 -0.2703094482421875 28.56399917602539 C -1.418048858642578 25.85044860839844 -2 22.96910095214844 -2 20 C -2 17.03089904785156 -1.418048858642578 14.14954948425293 -0.2703094482421875 11.43598937988281 C 0.8378486633300781 8.816009521484375 2.423851013183594 6.46343994140625 4.443649291992188 4.443649291992188 C 6.46343994140625 2.423851013183594 8.816009521484375 0.8378486633300781 11.43598937988281 -0.2703094482421875 C 14.14954948425293 -1.418048858642578 17.03089904785156 -2 20 -2 Z" stroke="none" fill="#c6c6c6"/>
  </g>
</svg>
