<svg xmlns="http://www.w3.org/2000/svg" xmlns:xlink="http://www.w3.org/1999/xlink" width="44" height="44" viewBox="0 0 44 44">
  <defs>
    <clipPath id="clip-path">
      <circle id="Ellipse_107" data-name="Ellipse 107" cx="20" cy="20" r="20" transform="translate(1 0)" fill="#fff" stroke="#707070" stroke-width="1"/>
    </clipPath>
  </defs>
  <g id="Group_17639" data-name="Group 17639" transform="translate(-1185 -199)">
    <g id="Group_17167" data-name="Group 17167" transform="translate(259 6)">
      <g id="Group_17103" data-name="Group 17103" transform="translate(63 -78)">
        <g id="Group_17064" data-name="Group 17064" transform="translate(-19)">
          <g id="Ellipse_26" data-name="Ellipse 26" transform="translate(884 273)" fill="#fff" stroke="rgba(141,141,141,0.5)" stroke-width="2">
            <circle cx="20" cy="20" r="20" stroke="none"/>
            <circle cx="20" cy="20" r="21" fill="none"/>
          </g>
          <g id="Mask_Group_4" data-name="Mask Group 4" transform="translate(883 273)" clip-path="url(#clip-path)">
            <g id="Group_17068" data-name="Group 17068">
              <g id="Group_678" data-name="Group 678" transform="translate(7.826 10.565)">
                <rect id="Rectangle_1158" data-name="Rectangle 1158" width="28" height="31" rx="3" transform="translate(-0.826 -0.565)" fill="#8d8d8d"/>
                <path id="Path_948" data-name="Path 948" d="M0,28.87v0Z" transform="translate(0.174 1.565)" fill="#8d8d8d"/>
                <path id="Path_20857" data-name="Path 20857" d="M0,0" transform="translate(24.348 2.826) rotate(90)" fill="none" stroke="#707070" stroke-width="1"/>
                <path id="Path_20858" data-name="Path 20858" d="M387.659,266.2H372.742a1.41,1.41,0,0,1-1.542-1.212V249.411a1.41,1.41,0,0,1,1.542-1.211h14.917a1.409,1.409,0,0,1,1.541,1.211v15.577A1.414,1.414,0,0,1,387.659,266.2Z" transform="translate(-367.026 -242.635)" fill="#c6c6c6"/>
                <g id="Group_17002" data-name="Group 17002" transform="translate(6.174 9.565)">
                  <g id="Group_17001" data-name="Group 17001">
                    <circle id="Ellipse_37" data-name="Ellipse 37" cx="1" cy="1" r="1" fill="#fff"/>
                  </g>
                </g>
                <g id="Group_17053" data-name="Group 17053" transform="translate(6.174 17.565)">
                  <g id="Group_17001-2" data-name="Group 17001">
                    <circle id="Ellipse_37-2" data-name="Ellipse 37" cx="1" cy="1" r="1" fill="#fff"/>
                  </g>
                </g>
                <g id="Group_17047" data-name="Group 17047" transform="translate(10.174 9.565)">
                  <g id="Group_17001-3" data-name="Group 17001">
                    <circle id="Ellipse_37-3" data-name="Ellipse 37" cx="1" cy="1" r="1" fill="#fff"/>
                  </g>
                </g>
                <g id="Group_17052" data-name="Group 17052" transform="translate(10.174 17.565)">
                  <g id="Group_17001-4" data-name="Group 17001">
                    <circle id="Ellipse_37-4" data-name="Ellipse 37" cx="1" cy="1" r="1" fill="#fff"/>
                  </g>
                </g>
                <g id="Group_17048" data-name="Group 17048" transform="translate(14.174 9.565)">
                  <g id="Group_17001-5" data-name="Group 17001">
                    <circle id="Ellipse_37-5" data-name="Ellipse 37" cx="1" cy="1" r="1" fill="#fff"/>
                  </g>
                </g>
                <g id="Group_17051" data-name="Group 17051" transform="translate(14.174 17.565)">
                  <g id="Group_17001-6" data-name="Group 17001">
                    <circle id="Ellipse_37-6" data-name="Ellipse 37" cx="1" cy="1" r="1" fill="#fff"/>
                  </g>
                </g>
                <g id="Group_17049" data-name="Group 17049" transform="translate(18.174 9.565)">
                  <g id="Group_17001-7" data-name="Group 17001">
                    <circle id="Ellipse_37-7" data-name="Ellipse 37" cx="1" cy="1" r="1" fill="#fff"/>
                  </g>
                </g>
                <g id="Group_17050" data-name="Group 17050" transform="translate(18.174 17.565)">
                  <g id="Group_17001-8" data-name="Group 17001">
                    <circle id="Ellipse_37-8" data-name="Ellipse 37" cx="1" cy="1" r="1" fill="#fff"/>
                  </g>
                </g>
              </g>
            </g>
          </g>
        </g>
      </g>
    </g>
  </g>
</svg>
