<svg xmlns="http://www.w3.org/2000/svg" xmlns:xlink="http://www.w3.org/1999/xlink" width="44" height="44" viewBox="0 0 44 44">
  <defs>
    <clipPath id="clip-path">
      <circle id="Ellipse_23" data-name="Ellipse 23" cx="20" cy="20" r="20" transform="translate(1 0)" fill="#fff" stroke="#707070" stroke-width="2"/>
    </clipPath>
  </defs>
  <g id="Group_17637" data-name="Group 17637" transform="translate(-997 -199)">
    <g id="Group_17393" data-name="Group 17393" transform="translate(215 6)">
      <g id="Ellipse_14" data-name="Ellipse 14" transform="translate(784 195)" fill="#fff" stroke="rgba(141,141,141,0.5)" stroke-width="2">
        <circle cx="20" cy="20" r="20" stroke="none"/>
        <circle cx="20" cy="20" r="21" fill="none"/>
      </g>
      <g id="Mask_Group_2" data-name="Mask Group 2" transform="translate(783 195)" clip-path="url(#clip-path)">
        <g id="Group_17065" data-name="Group 17065" transform="translate(2)">
          <path id="Path_947" data-name="Path 947" d="M.174-.435H20.341l1.833,2.9v27.1h-22Z" transform="translate(7.826 11.435)" fill="#8d8d8d"/>
          <circle id="Ellipse_15" data-name="Ellipse 15" cx="1" cy="1" r="1" transform="translate(10 13.043)" fill="#fff"/>
          <circle id="Ellipse_248" data-name="Ellipse 248" cx="1" cy="1" r="1" transform="translate(14 13.043)" fill="#fff"/>
          <circle id="Ellipse_249" data-name="Ellipse 249" cx="1" cy="1" r="1" transform="translate(18 13.043)" fill="#fff"/>
          <circle id="Ellipse_250" data-name="Ellipse 250" cx="1" cy="1" r="1" transform="translate(22 13.043)" fill="#fff"/>
          <circle id="Ellipse_251" data-name="Ellipse 251" cx="1" cy="1" r="1" transform="translate(26 13.043)" fill="#fff"/>
          <rect id="Rectangle_1113" data-name="Rectangle 1113" width="2" height="23" rx="1" transform="translate(10 17)" fill="#c6c6c6"/>
          <rect id="Rectangle_1114" data-name="Rectangle 1114" width="2" height="24" rx="1" transform="translate(14 17)" fill="#c6c6c6"/>
          <rect id="Rectangle_1115" data-name="Rectangle 1115" width="2" height="24" rx="1" transform="translate(18 17)" fill="#c6c6c6"/>
          <rect id="Rectangle_1116" data-name="Rectangle 1116" width="2" height="25" rx="1" transform="translate(22 17)" fill="#c6c6c6"/>
          <rect id="Rectangle_1117" data-name="Rectangle 1117" width="2" height="23" rx="1" transform="translate(26 17)" fill="#c6c6c6"/>
        </g>
      </g>
    </g>
  </g>
</svg>
