<svg xmlns="http://www.w3.org/2000/svg" xmlns:xlink="http://www.w3.org/1999/xlink" width="44" height="44" viewBox="0 0 44 44">
  <defs>
    <clipPath id="clip-path">
      <circle id="Ellipse_23" data-name="Ellipse 23" cx="20" cy="20" r="20" transform="translate(0 0)" fill="#fff" stroke="#707070" stroke-width="1"/>
    </clipPath>
  </defs>
  <g id="Group_17634" data-name="Group 17634" transform="translate(-716 -199)">
    <g id="Group_17027" data-name="Group 17027" transform="translate(174 -99)">
      <g id="Group_17026" data-name="Group 17026" transform="translate(542 298)">
        <g id="Ellipse_14" data-name="Ellipse 14" transform="translate(2 2)" fill="#fff" stroke="rgba(141,141,141,0.5)" stroke-width="2">
          <circle cx="20" cy="20" r="20" stroke="none"/>
          <circle cx="20" cy="20" r="21" fill="none"/>
        </g>
        <g id="Mask_Group_2" data-name="Mask Group 2" transform="translate(2 2)" clip-path="url(#clip-path)">
          <path id="Rectangle_220" data-name="Rectangle 220" d="M0,0H12a0,0,0,0,1,0,0V21.709a.919.919,0,0,1-.919.919H.985A.985.985,0,0,1,0,21.642V0A0,0,0,0,1,0,0Z" transform="translate(14 19.372)" fill="rgba(141,141,141,0.5)"/>
          <rect id="Rectangle_221" data-name="Rectangle 221" width="16" height="2" transform="translate(12 18)" fill="#8d8d8d"/>
          <path id="Rectangle_222" data-name="Rectangle 222" d="M.355,0H11.678A.322.322,0,0,1,12,.322V8a0,0,0,0,1,0,0H0A0,0,0,0,1,0,8V.355A.355.355,0,0,1,.355,0Z" transform="translate(14 10)" fill="#8d8d8d"/>
        </g>
      </g>
    </g>
  </g>
</svg>
