<svg xmlns="http://www.w3.org/2000/svg" width="18.642" height="18.6" viewBox="0 0 18.642 18.6">
  <path id="Subtraction_2" data-name="Subtraction 2" d="M8191.261-4609.4h0l-5.449-5.521v-.5l-.291-.3a6.97,6.97,0,0,1-4.543,1.687,6.935,6.935,0,0,1-4.936-2.045,6.935,6.935,0,0,1-2.045-4.936,6.935,6.935,0,0,1,2.045-4.936,6.933,6.933,0,0,1,4.936-2.045,6.936,6.936,0,0,1,4.938,2.045,6.933,6.933,0,0,1,2.044,4.936,6.975,6.975,0,0,1-1.686,4.542l.3.29h.58l5.487,5.423-1.377,1.363Zm-10.283-17.257a5.644,5.644,0,0,0-5.639,5.638,5.645,5.645,0,0,0,5.639,5.638,5.644,5.644,0,0,0,5.638-5.638A5.644,5.644,0,0,0,8180.978-4626.657Z" transform="translate(-8173.998 4628)"/>
</svg>
