<svg xmlns="http://www.w3.org/2000/svg" width="32" height="32" viewBox="0 0 32 32">
  <g id="pending" transform="translate(2 2)">
    <path id="Path_17" data-name="Path 17" d="M14,29A15,15,0,0,1,3.393,3.393,14.984,14.984,0,0,1,18.84-.195,15.619,15.619,0,0,1,23.128,2.1a15.008,15.008,0,0,1-3.29,25.724A14.907,14.907,0,0,1,14,29Z" fill="#c6c6c6"/>
    <path id="Path_18" data-name="Path 18" d="M14-.545a14.544,14.544,0,1,0,8.858,3.007A14.545,14.545,0,0,0,14-.545M14-2a15.836,15.836,0,0,1,5.164.86A16.63,16.63,0,0,1,23.731,1.3a16.008,16.008,0,0,1-3.5,27.444A16,16,0,0,1,2.686,2.686,15.954,15.954,0,0,1,14-2Z" fill="#c6c6c6"/>
  </g>
</svg>
