<svg xmlns="http://www.w3.org/2000/svg" xmlns:xlink="http://www.w3.org/1999/xlink" width="170" height="170" viewBox="0 0 170 170">
  <defs>
    <filter id="Ellipse_14" x="0" y="0" width="170" height="170" filterUnits="userSpaceOnUse">
      <feOffset dx="4" dy="4" input="SourceAlpha"/>
      <feGaussianBlur stdDeviation="3" result="blur"/>
      <feFlood flood-opacity="0.161"/>
      <feComposite operator="in" in2="blur"/>
      <feComposite in="SourceGraphic"/>
    </filter>
    <clipPath id="clip-path">
      <circle id="Ellipse_23" data-name="Ellipse 23" cx="70" cy="70" r="70" fill="#fff" stroke="#707070" stroke-width="1"/>
    </clipPath>
  </defs>
  <g id="Group_17007" data-name="Group 17007" transform="translate(9 9)">
    <g transform="matrix(1, 0, 0, 1, -9, -9)" filter="url(#Ellipse_14)">
      <g id="Ellipse_14-2" data-name="Ellipse 14" transform="translate(11 11)" fill="#fff" stroke="#b2bed0" stroke-width="6">
        <circle cx="70" cy="70" r="70" stroke="none"/>
        <circle cx="70" cy="70" r="73" fill="none"/>
      </g>
    </g>
    <g id="Mask_Group_2" data-name="Mask Group 2" transform="translate(2 2)" clip-path="url(#clip-path)">
      <g id="Group_7" data-name="Group 7" transform="translate(1.489 40.213)">
        <g id="nut-icon" transform="translate(0 46.915)">
          <circle id="Oval" cx="5.489" cy="5.489" r="5.489" transform="translate(26.227 26.227)" fill="#597195"/>
          <path id="Shape" d="M35.791,64.043H28.006a1.663,1.663,0,0,1-1.57-1.3l-1.453-7.752a24.061,24.061,0,0,1-4.37-1.821L14.2,57.558a1.568,1.568,0,0,1-.885.26,1.617,1.617,0,0,1-1.145-.452l-5.5-5.5a1.656,1.656,0,0,1-.189-2.028l4.387-6.413a23.833,23.833,0,0,1-1.856-4.5L1.3,37.474A1.667,1.667,0,0,1,0,35.9V28.121a1.663,1.663,0,0,1,1.3-1.57l7.715-1.445a23.961,23.961,0,0,1,1.816-4.412L6.394,14.209a1.661,1.661,0,0,1,.19-2.029l5.505-5.505a1.619,1.619,0,0,1,1.144-.451,1.557,1.557,0,0,1,.886.262L20.563,10.9A23.819,23.819,0,0,1,24.98,9.052L26.435,1.3A1.664,1.664,0,0,1,28,0h7.784a1.661,1.661,0,0,1,1.568,1.3l1.438,7.674a23.941,23.941,0,0,1,4.6,1.881l6.53-4.466a1.577,1.577,0,0,1,.884-.261,1.617,1.617,0,0,1,1.143.451l5.5,5.5a1.658,1.658,0,0,1,.19,2.029L53.185,20.64A23.829,23.829,0,0,1,55.03,25.1l7.715,1.446a1.654,1.654,0,0,1,1.3,1.572v7.783a1.666,1.666,0,0,1-1.3,1.571l-7.708,1.445a24.043,24.043,0,0,1-1.885,4.556l4.418,6.455a1.663,1.663,0,0,1-.192,2.029l-5.5,5.5a1.616,1.616,0,0,1-1.145.454,1.555,1.555,0,0,1-.884-.262l-6.492-4.442A24.124,24.124,0,0,1,38.8,55.067l-1.44,7.676A1.665,1.665,0,0,1,35.791,64.043ZM32.324,18.908a13.38,13.38,0,1,0,5.224,1.055A13.33,13.33,0,0,0,32.324,18.908Z" transform="translate(0 0)" fill="#597195"/>
        </g>
        <g id="nut-icon_copy" data-name="nut-icon copy" transform="translate(59.574 14.894)">
          <circle id="Oval-2" data-name="Oval" cx="7.628" cy="7.628" r="7.628" transform="translate(36.003 36.003)" fill="rgba(89,113,149,0.5)"/>
          <path id="Shape-2" data-name="Shape" d="M49.108,87.872H38.426a2.28,2.28,0,0,1-2.153-1.783L34.279,75.453a33.021,33.021,0,0,1-6-2.5l-8.8,6.021a2.152,2.152,0,0,1-1.214.356,2.222,2.222,0,0,1-1.571-.62L9.15,71.16a2.27,2.27,0,0,1-.26-2.782l6.02-8.8A32.792,32.792,0,0,1,12.363,53.4L1.785,51.418A2.286,2.286,0,0,1,0,49.263V38.584a2.281,2.281,0,0,1,1.785-2.153L12.37,34.448a32.929,32.929,0,0,1,2.492-6.053L8.773,19.5a2.279,2.279,0,0,1,.26-2.784l7.554-7.553a2.218,2.218,0,0,1,1.569-.619,2.138,2.138,0,0,1,1.215.36l8.844,6.05a32.713,32.713,0,0,1,6.06-2.53l2-10.634A2.283,2.283,0,0,1,38.425,0H49.1a2.278,2.278,0,0,1,2.152,1.786l1.974,10.53A32.845,32.845,0,0,1,59.544,14.9L68.5,8.768a2.131,2.131,0,0,1,1.212-.359,2.221,2.221,0,0,1,1.569.619l7.552,7.553a2.274,2.274,0,0,1,.262,2.784L72.974,28.32a32.633,32.633,0,0,1,2.531,6.126l10.585,1.984a2.268,2.268,0,0,1,1.781,2.157V49.267a2.285,2.285,0,0,1-1.781,2.155L75.515,53.4a32.976,32.976,0,0,1-2.586,6.252l6.061,8.856a2.282,2.282,0,0,1-.263,2.785l-7.549,7.547a2.213,2.213,0,0,1-1.57.623,2.135,2.135,0,0,1-1.214-.359l-8.908-6.1a33.15,33.15,0,0,1-6.248,2.546L51.262,86.089A2.284,2.284,0,0,1,49.108,87.872ZM43.933,25.63a18.255,18.255,0,1,0,7.127,1.439A18.183,18.183,0,0,0,43.933,25.63Z" transform="translate(0 0)" fill="rgba(74,98,133,0.51)"/>
        </g>
        <g id="nut-icon_copy_2" data-name="nut-icon copy 2" transform="translate(20.851 0)">
          <circle id="Oval-3" data-name="Oval" cx="4.235" cy="4.235" r="4.235" transform="translate(19.967 19.967)" fill="#597195"/>
          <path id="Shape-3" data-name="Shape" d="M27.051,48.4H21.167a1.257,1.257,0,0,1-1.187-.982l-1.1-5.86a18.135,18.135,0,0,1-3.3-1.376L10.733,43.5a1.184,1.184,0,0,1-.669.2,1.224,1.224,0,0,1-.865-.341L5.04,39.2A1.25,1.25,0,0,1,4.9,37.666l3.316-4.848a18.029,18.029,0,0,1-1.4-3.4L.983,28.324A1.26,1.26,0,0,1,0,27.136V21.254a1.257,1.257,0,0,1,.983-1.186l5.831-1.092a18.158,18.158,0,0,1,1.373-3.335l-3.354-4.9a1.255,1.255,0,0,1,.143-1.533L9.137,5.045A1.221,1.221,0,0,1,10,4.7a1.178,1.178,0,0,1,.67.2l4.872,3.332a18.064,18.064,0,0,1,3.338-1.393L19.98.984A1.257,1.257,0,0,1,21.166,0h5.883a1.254,1.254,0,0,1,1.185.984l1.088,5.8A18.024,18.024,0,0,1,32.8,8.206L37.736,4.83a1.172,1.172,0,0,1,.667-.2,1.224,1.224,0,0,1,.864.341l4.16,4.16a1.253,1.253,0,0,1,.144,1.534L40.2,15.6a18,18,0,0,1,1.395,3.375l5.831,1.093a1.25,1.25,0,0,1,.981,1.188v5.882a1.26,1.26,0,0,1-.981,1.188L41.6,29.418a18.173,18.173,0,0,1-1.425,3.444l3.339,4.878a1.257,1.257,0,0,1-.145,1.533l-4.158,4.158a1.219,1.219,0,0,1-.865.343,1.177,1.177,0,0,1-.669-.2l-4.907-3.358a18.267,18.267,0,0,1-3.442,1.4l-1.088,5.8A1.257,1.257,0,0,1,27.051,48.4ZM23.9,13.916a9.985,9.985,0,1,0,7.06,2.924A9.916,9.916,0,0,0,23.9,13.916Z" transform="translate(0)" fill="#597195"/>
        </g>
      </g>
    </g>
  </g>
</svg>
