<svg xmlns="http://www.w3.org/2000/svg" xmlns:xlink="http://www.w3.org/1999/xlink" width="170" height="170" viewBox="0 0 170 170">
  <defs>
    <filter id="Ellipse_14" x="0" y="0" width="170" height="170" filterUnits="userSpaceOnUse">
      <feOffset dx="4" dy="4" input="SourceAlpha"/>
      <feGaussianBlur stdDeviation="3" result="blur"/>
      <feFlood flood-opacity="0.161"/>
      <feComposite operator="in" in2="blur"/>
      <feComposite in="SourceGraphic"/>
    </filter>
    <clipPath id="clip-path">
      <circle id="Ellipse_23" data-name="Ellipse 23" cx="70" cy="70" r="70" fill="#fff" stroke="#707070" stroke-width="1"/>
    </clipPath>
  </defs>
  <g id="Group_17005" data-name="Group 17005" transform="translate(9 9)">
    <g transform="matrix(1, 0, 0, 1, -9, -9)" filter="url(#Ellipse_14)">
      <g id="Ellipse_14-2" data-name="Ellipse 14" transform="translate(11 11)" fill="#fff" stroke="#b2bed0" stroke-width="6">
        <circle cx="70" cy="70" r="70" stroke="none"/>
        <circle cx="70" cy="70" r="73" fill="none"/>
      </g>
    </g>
    <g id="Mask_Group_2" data-name="Mask Group 2" transform="translate(2 2)" clip-path="url(#clip-path)">
      <g id="Group_16453" data-name="Group 16453" transform="translate(18.261 35)">
        <g id="Rectangle_249" data-name="Rectangle 249" transform="translate(0 10.652)" fill="rgba(89,113,149,0.5)" stroke="#597195" stroke-width="6">
          <rect width="103.478" height="112.609" rx="9" stroke="none"/>
          <rect x="3" y="3" width="97.478" height="106.609" rx="6" fill="none"/>
        </g>
        <rect id="Rectangle_250" data-name="Rectangle 250" width="48.696" height="18.261" rx="1" transform="translate(27.391 4.565)" fill="#597195"/>
        <g id="Group_16454" data-name="Group 16454" transform="translate(33.478 31.957)">
          <circle id="Ellipse_110" data-name="Ellipse 110" cx="18.261" cy="18.261" r="18.261" transform="translate(0 0)" fill="#597195"/>
          <rect id="Rectangle_251" data-name="Rectangle 251" width="6" height="18.261" transform="translate(15.217 9.13)" fill="#fff"/>
          <rect id="Rectangle_252" data-name="Rectangle 252" width="18.261" height="6" transform="translate(9.13 15.217)" fill="#fff"/>
        </g>
        <line id="Line_538" data-name="Line 538" x2="67.424" transform="translate(18.027 79.13)" fill="none" stroke="#597195" stroke-width="6"/>
        <line id="Line_539" data-name="Line 539" x2="67.424" transform="translate(18.027 91.304)" fill="none" stroke="#597195" stroke-width="6"/>
        <line id="Line_540" data-name="Line 540" x2="67.424" transform="translate(18.027 103.478)" fill="none" stroke="#597195" stroke-width="6"/>
        <g id="Ellipse_111" data-name="Ellipse 111" transform="translate(45.652)" fill="#fff" stroke="#597195" stroke-width="5">
          <circle cx="6.087" cy="6.087" r="6.087" stroke="none"/>
          <circle cx="6.087" cy="6.087" r="3.587" fill="none"/>
        </g>
      </g>
    </g>
  </g>
</svg>
