<svg xmlns="http://www.w3.org/2000/svg" xmlns:xlink="http://www.w3.org/1999/xlink" width="170" height="170" viewBox="0 0 170 170">
  <defs>
    <filter id="Path_20860" x="0" y="0" width="170" height="170" filterUnits="userSpaceOnUse">
      <feOffset dx="4" dy="4" input="SourceAlpha"/>
      <feGaussianBlur stdDeviation="3" result="blur"/>
      <feFlood flood-opacity="0.161"/>
      <feComposite operator="in" in2="blur"/>
      <feComposite in="SourceGraphic"/>
    </filter>
    <clipPath id="clip-path">
      <circle id="Ellipse_1" data-name="Ellipse 1" cx="70" cy="70" r="70" fill="#fff" stroke="#707070" stroke-width="1"/>
    </clipPath>
  </defs>
  <g id="Group_17009" data-name="Group 17009" transform="translate(10 10)">
    <g transform="matrix(1, 0, 0, 1, -10, -10)" filter="url(#Path_20860)">
      <g id="Path_20860-2" data-name="Path 20860" transform="translate(11 11)" fill="#fff">
        <path d="M 70 143 C 60.14638137817383 143 50.58591842651367 141.0694732666016 41.58417892456055 137.2620544433594 C 37.25799942016602 135.4322357177734 33.08560180664063 133.1675567626953 29.18292045593262 130.5309600830078 C 25.31808090209961 127.9199371337891 21.68386077880859 124.9214401245117 18.38120079040527 121.6187973022461 C 15.07855987548828 118.3161392211914 12.08006000518799 114.6819229125977 9.469039916992188 110.8170776367188 C 6.83243989944458 106.9143981933594 4.567759990692139 102.7419967651367 2.737940073013306 98.41581726074219 C -1.069479942321777 89.41407775878906 -3 79.85362243652344 -3 70 C -3 60.14638137817383 -1.069479942321777 50.58591842651367 2.737940073013306 41.58417892456055 C 4.567759990692139 37.25799942016602 6.83243989944458 33.08560180664063 9.469039916992188 29.18292045593262 C 12.08006000518799 25.31808090209961 15.07855987548828 21.68386077880859 18.38120079040527 18.38120079040527 C 21.68386077880859 15.07855987548828 25.31808090209961 12.08006000518799 29.18292045593262 9.469039916992188 C 33.08560180664063 6.83243989944458 37.25799942016602 4.567759990692139 41.58417892456055 2.737940073013306 C 50.58591842651367 -1.069479942321777 60.14638137817383 -3 70 -3 C 79.85362243652344 -3 89.41407775878906 -1.069479942321777 98.41581726074219 2.737940073013306 C 102.7419967651367 4.567759990692139 106.9143981933594 6.83243989944458 110.8170776367188 9.469039916992188 C 114.6819229125977 12.08006000518799 118.3161392211914 15.07855987548828 121.6187973022461 18.38120079040527 C 124.9214401245117 21.68386077880859 127.9199371337891 25.31808090209961 130.5309600830078 29.18292045593262 C 133.1675567626953 33.08560180664063 135.4322357177734 37.25799942016602 137.2620544433594 41.58417892456055 C 141.0694732666016 50.58591842651367 143 60.14638137817383 143 70 C 143 79.85362243652344 141.0694732666016 89.41407775878906 137.2620544433594 98.41581726074219 C 135.4322357177734 102.7419967651367 133.1675567626953 106.9143981933594 130.5309600830078 110.8170776367188 C 127.9199371337891 114.6819229125977 124.9214401245117 118.3161392211914 121.6187973022461 121.6187973022461 C 118.3161392211914 124.9214401245117 114.6819229125977 127.9199371337891 110.8170776367188 130.5309600830078 C 106.9143981933594 133.1675567626953 102.7419967651367 135.4322357177734 98.41581726074219 137.2620544433594 C 89.41407775878906 141.0694732666016 79.85362243652344 143 70 143 Z" stroke="none"/>
        <path d="M 70 0 C 31.34007263183594 0 0 31.34007263183594 0 70 C 0 108.6599273681641 31.34007263183594 140 70 140 C 108.6599273681641 140 140 108.6599273681641 140 70 C 140 31.34007263183594 108.6599273681641 0 70 0 M 70 -6 C 111.9065475463867 -6 146 28.09345245361328 146 70 C 146 111.9065475463867 111.9065475463867 146 70 146 C 28.09345245361328 146 -6 111.9065475463867 -6 70 C -6 28.09345245361328 28.09345245361328 -6 70 -6 Z" stroke="none" fill="#b2bed0"/>
      </g>
    </g>
    <g id="Group_1" data-name="Group 1" transform="translate(1 1)" clip-path="url(#clip-path)">
      <g id="Group_17008" data-name="Group 17008" transform="translate(48 28)">
        <path id="Path_1011" data-name="Path 1011" d="M0,0H46V33H0Z" transform="translate(-1 1)" fill="#597195"/>
        <rect id="Rectangle_11" data-name="Rectangle 11" width="40" height="133.306" transform="translate(2 33.569)" fill="rgba(89,113,149,0.5)"/>
        <rect id="Rectangle_12" data-name="Rectangle 12" width="28" height="76.821" transform="translate(8 55.185)" fill="#597195"/>
        <rect id="Rectangle_13" data-name="Rectangle 13" width="6" height="18" transform="translate(18.976 74.997)" fill="#fff"/>
        <rect id="Rectangle_14" data-name="Rectangle 14" width="18" height="6" transform="translate(13.298 80.928)" fill="#fff"/>
      </g>
    </g>
  </g>
</svg>
